<?xml version="1.0" encoding="utf-8"?>
<!-- Generator: Adobe Illustrator 24.1.2, SVG Export Plug-In . SVG Version: 6.00 Build 0)  -->
<svg version="1.1" id="图层_1_x5F_复制" xmlns="http://www.w3.org/2000/svg" xmlns:xlink="http://www.w3.org/1999/xlink"
	 x="0px" y="0px" viewBox="0 0 500 500" style="enable-background:new 0 0 500 500;" xml:space="preserve">
<style type="text/css">
	.st0{fill:#FFE220;}
	.st1{fill:#FFFFFF;}
</style>
<g id="XMLID_1_">
	<g>
		<circle class="st0" cx="250" cy="250" r="213.5"/>
	</g>
	<g>
	</g>
</g>
<g id="图层_1">
</g>
<g>
	<path class="st1" d="M170.6,401.2h175.8c0,0-3.6-45.1-30.9-60.8c0,0,39.5-43.1,43.1-67.9c0,0-43.1-22.3-58.2-48.6
		c0,0,79.5,48.6,101.8,48.6c0,0,8.1-48.6-70.4-98.8c0,0-8.6-6.6-20.8,4.6c-12.2,11.1-25.3,26.4-30.4,60.8s-3,72.8-4.6,80.9
		c0,0-21.9-3.7-32.9,0.2c0,0-1-28.9-9.6-67.4c-9-40.1-28.4-102.8-73.5-125.6c0,0-27.4,25.3-22.8,81.1S161,309.6,199,337.4
		C199,337.4,170.6,354.1,170.6,401.2z"/>
</g>
</svg>
