<?xml version="1.0" encoding="utf-8"?>
<!-- Generator: Adobe Illustrator 24.1.2, SVG Export Plug-In . SVG Version: 6.00 Build 0)  -->
<svg version="1.1" id="图层_1_x5F_复制" xmlns="http://www.w3.org/2000/svg" xmlns:xlink="http://www.w3.org/1999/xlink"
	 x="0px" y="0px" viewBox="0 0 500 500" style="enable-background:new 0 0 500 500;" xml:space="preserve">
<style type="text/css">
	.st0{fill:#FFFFFF;}
	.st1{fill:#FFE220;}
</style>
<g id="XMLID_1_">
	<g>
		<circle class="st0" cx="250" cy="250" r="213.5"/>
	</g>
</g>
<g id="图层_1">
</g>
<g>
	<g id="XMLID_3_">
		<g>
			<circle class="st1" cx="250" cy="250" r="205.5"/>
		</g>
		<g>
		</g>
	</g>
	<g id="图层_1_2_">
	</g>
	<g>
		<path class="st0" d="M173.6,395.5h169.2c0,0-3.5-43.4-29.7-58.5c0,0,38-41.5,41.5-65.4c0,0-41.5-21.5-56-46.8
			c0,0,76.5,46.8,98,46.8c0,0,7.8-46.8-67.8-95.1c0,0-8.3-6.4-20,4.4c-11.7,10.7-24.4,25.4-29.3,58.5s-2.9,70.1-4.4,77.9
			c0,0-21.1-3.6-31.7,0.2c0,0-1-27.8-9.2-64.9c-8.7-38.6-27.3-98.9-70.7-120.9c0,0-26.4,24.4-21.9,78.1s22.9,97.5,59.5,124.3
			C200.9,334.1,173.6,350.2,173.6,395.5z"/>
	</g>
</g>
</svg>
