<?xml version="1.0" encoding="utf-8"?>
<!-- Generator: Adobe Illustrator 24.1.2, SVG Export Plug-In . SVG Version: 6.00 Build 0)  -->
<svg version="1.1" id="图层_1_x5F_复制" xmlns="http://www.w3.org/2000/svg" xmlns:xlink="http://www.w3.org/1999/xlink"
	 x="0px" y="0px" viewBox="0 0 500 500" style="enable-background:new 0 0 500 500;" xml:space="preserve">
<style type="text/css">
	.st0{fill:#FFFFFF;}
	.st1{fill:#FFB5E7;}
</style>
<g id="XMLID_1_">
	<g>
		<circle class="st0" cx="250" cy="250" r="213.5"/>
	</g>
	<g>
	</g>
</g>
<g id="图层_1">
	<g id="XMLID_2_">
		<g>
			<path class="st1" d="M250,439.4c90.3,0,165.8-63.8,183.7-148.7c-41.9-4.5-81.8,18.6-98.7,57.2H164.9
				c-16.8-38.6-56.8-61.8-98.7-57.2C84.2,375.6,159.7,439.4,250,439.4z M250,54.1c109,0,197.4,88.4,197.4,197.4S359,449,250,449
				S52.6,360.6,52.6,251.5S141,54.1,250,54.1z M333.7,247.4c27-32.9,22.1-81.5-10.8-108.4c-32.9-27-81.5-22.1-108.4,10.8
				c-20,24.4-23.1,58.6-7.8,86.2l-14.5,14.5l-18.7-18.7c-5.7-5.5-14.9-5.4-20.4,0.4c-5.4,5.6-5.4,14.5,0,20.1l18.7,18.7l-12.6,12.5
				c-5.6,5.6-5.6,14.8,0,20.4c5.6,5.6,14.8,5.6,20.5,0l12.5-12.6l18.7,18.7c5.7,5.5,14.9,5.4,20.4-0.4c5.4-5.6,5.4-14.5,0-20.1
				l-18.7-18.7l12.6-12.6v0C258.2,285.1,306.7,280.3,333.7,247.4z"/>
			<path class="st1" d="M274.1,150.4c26.6,0,48.2,21.6,48.1,48.2c0,26.6-21.6,48.1-48.1,48.1c-26.6,0-48.2-21.5-48.2-48.1
				C225.9,172,247.4,150.4,274.1,150.4C274,150.4,274.1,150.4,274.1,150.4z"/>
		</g>
		<g>
		</g>
	</g>
</g>
</svg>
