<?xml version="1.0" standalone="no"?><!DOCTYPE svg PUBLIC "-//W3C//DTD SVG 1.1//EN" "http://www.w3.org/Graphics/SVG/1.1/DTD/svg11.dtd"><svg t="1614334205192" class="icon" viewBox="0 0 1539 1024" version="1.1" xmlns="http://www.w3.org/2000/svg" p-id="17183" xmlns:xlink="http://www.w3.org/1999/xlink" width="300.5859375" height="200"><defs><style type="text/css"></style></defs><path d="M619.51658519 795.41408544c-1.44631587-21.99250738 5.27479842-46.02687286 14.0803094-69.25300252a127.23325025 127.23325025 0 0 1 38.96544852-51.81213634 106.85721305 106.85721305 0 0 0-22.33281743 17.27071186l0.38284861-0.51046434 1.70154804-2.38216668c13.18699716-21.26934946 24.03436548-44.49547984 25.99114569-69.16792537a114.25894671 114.25894671 0 0 1-7.40173438 23.48136183 83.75869909 83.75869909 0 0 0-10.03913252-43.04916397 94.64860672 94.64860672 0 0 1 3.82848255 18.16402484c-7.99727515-10.03913323-19.48272427-14.59077372-30.41516972-18.63195059 9.57120746 4.80687337 19.52526284 10.507059 25.5232192 18.84464419-13.18699716-13.74000007-38.28482989-10.33690398-64.5737456-11.9108363-14.80346732-4.25386975-31.39356057-10.93244547-37.56167193-26.96953507a38.79529422 38.79529422 0 0 0 13.78253864 22.03504596c-16.24978319-7.40173366-27.52253871-24.62990697-31.56371486-43.30439614a71.03962844 71.03962844 0 0 0 12.16606847 34.71157878c-21.01411728-19.61034069-21.26934946-57.93770843-21.26935018-57.93770844a51.04643911 51.04643911 0 0 0-2.5523217 20.46111437 198.44303299 198.44303299 0 0 0-27.7352323-45.34625351 56.74662546 56.74662546 0 0 1-15.56916384-40.19907151c-7.99727515 20.33349864 0.2126936 49.5150461 0.2126936 49.51504681a232.686686 232.686686 0 0 1-10.16674968-44.750712c-1.53139301 33.39287934 2.89263174 55.0450774 7.61442726 68.27461242-17.27071188-41.21999948-9.6988232-88.18272386-41.34761592-116.04557189-36.32804966-31.98910205-57.29962837-84.52439561-57.29962765-84.52439633-6.25318853 11.6981427-3.44563466 36.96612972-3.44563465 36.96613044a584.3966535 584.3966535 0 0 1-6.04049567-62.48934964c-5.40241488 16.54755393-5.53003059 41.81554169-4.46656334 61.85126885-3.61578968-25.52321992-5.23225985-52.53529357-5.23225986-52.53529427a189.25467414 189.25467414 0 0 0-44.32532553-48.19634595c-24.45975194-18.37671843-40.66699656-52.53529357-40.66699657-52.53529429 3.44563466 10.80482975 10.59213615 31.35102126 10.59213615 31.35102199-14.29300299-21.26934946-19.69541785-53.38606794-19.69541784-53.38606795a114.85448891 114.85448891 0 0 0 2.63739958 28.92631528l-0.34030932-0.72315793-0.97839012-2.59486027c-8.93312669-22.24773956-8.89058811-50.40835906-23.18359181-71.93294141 9.99659466 19.56780213 8.97566526 41.04984518 12.76160995 62.87219828A246.34160891 246.34160891 0 0 1 243.68717508 161.50238514a113.45071162 113.45071162 0 0 0 2.72247671 36.49820467A313.97814126 313.97814126 0 0 1 230.28748433 141.42411938a188.70167122 188.70167122 0 0 0 9.5286689 140.71801815 325.29343535 325.29343535 0 0 0 41.85808025 39.85876147c-14.12284796-6.59349857-34.92427238-23.86421045-34.92427236-23.86421044a130.25349773 130.25349773 0 0 0 32.03164062 31.13832766c3.956099 2.72247673 8.08235302 5.95541778 12.20860705 9.44359101a153.60724384 153.60724384 0 0 0-49.68520111-21.69473663c23.82167187 7.74204298 43.13424112 23.86421045 62.06396245 39.68860717l2.29708953 1.7866252A150.96984426 150.96984426 0 0 0 324.04277808 370.96294146l1.23362229 1.31870015c-22.24773956-6.67857572-57.93770843-36.32804966-57.93770844-36.32804968 17.0154797 25.31052633 65.29690353 50.15312688 65.29690352 50.15312688-34.37126946-10.80482975-67.46637733-36.54074254-67.46637732-36.54074253 23.7791333 21.60965949 71.59263135 46.79256937 71.59263134 46.79256937-22.71566532-1.74408661-52.74798715-20.07826647-52.74798715-20.07826646a884.80494972 884.80494972 0 0 0 52.53529356 94.26575809c18.16402483 1.95678022 44.75071201 12.33622277 44.75071202 12.33622277a93.58513874 93.58513874 0 0 0-45.60148568 0.42538719s37.60421052 3.02024748 63.80804908 17.27071187c3.99863757 2.16947381 7.912198 4.25386975 11.74068055 6.16811139-16.50501536-5.40241488-33.64811152-11.27275552-51.04643912-8.50773949 20.16334362-0.29777074 37.68928767 10.08167181 55.81077393 18.41925627h-1.27616085c-5.18972127-0.89331295-10.97498477-2.50978313-16.50501536-3.61578895a161.64705828 161.64705828 0 0 0-34.03096013-4.25387047 159.05219728 159.05219728 0 0 1 32.79733785 8.50774021c5.44495345 1.82916376 10.42198113 3.956099 16.29232177 5.7427242s11.48544911 2.50978313 17.01547969 3.5732511l2.59486029 0.38284789 5.87034064 0.85077439c-18.75956632 1.70154804-43.94247693-4.25386975-56.40631542-7.95473657a237.15325006 237.15325006 0 0 1-47.34557228-28.71362241c0 11.06006192 12.46383922 28.37331236 12.46383848 28.37331236a487.49349654 487.49349654 0 0 1-29.77708966-43.13424112c2.7650153 14.29300299 12.76160996 32.79733713 21.77981452 46.79256938-12.76160996-17.0154797-25.1403713-36.24297179-25.1403713-36.24297178a158.11634575 158.11634575 0 0 0-51.8972135-17.01547972c-25.26798776-3.48817324-51.04643911-21.86489167-51.04643911-21.86489166 6.9338079 6.46588213 20.41857578 18.58941202 20.41857506 18.5894113-19.09987637-9.82643964-35.98773963-31.01071194-35.98773962-31.01071194a96.30761546 96.30761546 0 0 0 13.65492291 20.03572789l-0.51046433-0.38284861-1.78662592-1.48885444c-15.56916383-12.76160996-26.92699649-33.18018575-46.06941144-43.09170255 15.22885451 10.25182683 23.22612966 26.28891643 34.75411735 40.75207443a206.01492167 206.01492167 0 0 1-36.71089755-35.4347367 94.81876102 94.81876102 0 0 0 16.76024752 25.5232192 262.16600491 262.16600491 0 0 1-34.71157877-34.79665593 157.60588141 157.60588141 0 0 0 63.80804981 98.85993789 271.77975095 271.77975095 0 0 0 46.79256936 12.12352917 181.68278545 181.68278545 0 0 1-35.17950454-3.27547963 108.81399325 108.81399325 0 0 0 35.98773962 9.74136176c3.99863757 0.38284862 8.50774021 1.06346725 12.76160998 1.95678022a128.25417893 128.25417893 0 0 0-45.04848276 4.25386974c20.50365294-3.99863757 41.1774609 0 61.3833431 3.82848328l2.42470596 0.38284862a125.44662507 125.44662507 0 0 0 18.4617956 1.65900874l1.40377729 0.46792576c-18.97225992 4.25386975-57.00185763-3.02024748-57.00185763-3.02024747 22.54551102 11.61306484 68.06191955 10.12421038 68.06191954 10.12421039-29.47931892 6.04049566-64.06328124 0.68061936-64.06328196 0.68061936 26.11876141 6.12557281 71.25232131 5.23225985 71.25232202 5.23225985-17.27071188 7.95473658-46.79256937 6.72111429-46.79256937 6.7211143a738.81213314 738.81213314 0 0 0 76.56965905 47.51572731 186.48965885 186.48965885 0 0 1 37.64674908-9.14582028 77.97343634 77.97343634 0 0 0-33.13764717 18.80210562s28.6710831-13.05938071 53.72637726-13.31461287c3.78594398 0 7.48681081 0 11.06006192-0.25523217-14.25046441 2.7650153-29.13900888 5.40241488-40.79461228 14.37808013 14.59077372-8.50774021 31.60625344-7.912198 48.23888523-9.14582028l-1.02092868 0.38284789c-4.25386975 1.44631587-9.01820455 2.63739958-13.52730647 4.04117688a135.10290968 135.10290968 0 0 0-26.5441486 10.6772133 133.10359089 133.10359089 0 0 1 27.30984511-7.23157864c4.72179551-0.85077366 9.18835885-1.36123872 14.2079251-2.38216741s9.40105244-2.80755387 13.86761653-4.25386975l2.04185736-0.80823508 4.63671836-1.74408734a105.79374578 105.79374578 0 0 1-24.84260055 11.48544911 46.02687286 46.02687286 0 0 0-6.97634648 1.61647089c-32.66972141 10.37944255-72.31578928 3.956099-72.31578928 3.956099 4.80687337 8.08235302 21.26934946 15.56916383 21.26934946 15.56916383a413.77392996 413.77392996 0 0 1-40.11399365-19.09987637c8.08235302 9.3159753 23.35374611 18.6319506 35.90266247 25.26798775-17.0154797-7.1465015-33.81826582-15.99455103-33.81826582-15.99455101a134.03944242 134.03944242 0 0 0-44.83578915 8.72043308c-20.07826647 8.1248916-46.79256937 5.48749202-46.7925701 5.48749274 7.82712085 1.82916376 22.88582035 5.01956625 22.88582035 5.01956625a114.85448891 114.85448891 0 0 1-39.56099001-7.52934937 81.46160957 81.46160957 0 0 0 18.50433415 8.93312669h-0.55300291l-1.95678021-0.34030933c-16.76024753-2.67993815-34.0309594-12.97430356-52.1099071-12.16606847 15.52662526 1.06346725 28.20315806 9.5286689 42.79393179 15.2288545a174.79151613 174.79151613 0 0 1-41.98569671-10.50705899 80.44068088 80.44068088 0 0 0 23.14105253 11.65560414 222.17962772 222.17962772 0 0 1-40.24160938-10.88990763 133.61405523 133.61405523 0 0 0 88.86334322 45.55894709 230.21944144 230.21944144 0 0 0 39.47591286-10.84736831 153.77739884 153.77739884 0 0 1-27.22476723 12.50637779 92.18136216 92.18136216 0 0 0 30.54278618-8.08235303c3.10532534-1.40377731 6.59349857-2.72247673 10.20928753-3.95609899a108.85653183 108.85653183 0 0 0-31.30848269 22.24774026c13.35715146-11.61306484 30.20247685-17.48340547 46.79256936-23.18359108l1.91424164-0.76569723a106.64451945 106.64451945 0 0 0 14.25046442-6.59349785l1.23362227-0.25523218c-12.20860704 11.06006192-43.17677968 21.90743023-43.17678041 21.90743023 21.48204305-1.02092869 54.23684161-21.26934946 54.23684232-21.26935016a179.08792518 179.08792518 0 0 1-46.79256936 27.60761586c21.77981378-6.55096 54.57715164-26.28891643 54.57715092-26.28891572-9.3159753 13.14445786-31.43609914 24.67244554-31.4360984 24.67244555a626.72265952 626.72265952 0 0 0 76.56965902 2.50978312 157.98873003 157.98873003 0 0 1 23.77913259-22.67312675 66.19021648 66.19021648 0 0 0-16.37739891 27.86284802s15.56916383-21.73727522 34.03095939-32.54210495c2.7650153-1.61647089 5.44495345-3.27547963 7.99727588-4.89195054-9.3159753 8.03981445-19.14241493 16.29232177-23.90674974 27.82030945 7.18904006-12.33622277 19.86557288-19.18495351 31.56371557-27.13969008l-0.59554222 0.72315793c-2.46724455 2.80755387-5.53003059 5.74272419-8.20996874 8.50773949a114.25894671 114.25894671 0 0 0-14.97362234 19.0573378 113.19547943 113.19547943 0 0 1 17.0154797-17.01547971c3.10532534-2.63739958 6.21064996-4.89195053 9.44359175-7.78458228s5.70018562-6.04049566 8.50773949-9.01820456l1.1910837-1.44631586 2.67993815-3.27547964a95.2441482 95.2441482 0 0 1-15.05869949 20.84396297c-0.59554149 0.55300292-1.23362228 1.14854513-1.78662591 1.74408662-20.07826647 20.80142441-51.93975207 31.94656347-51.93975207 31.94656347 6.80619217 4.25386975 21.94996882 3.06278604 21.94996953 3.06278604a348.81733576 348.81733576 0 0 1-37.43405621 1.95678022c9.74136249 3.65832826 24.80006197 4.25386975 36.75343684 4.25386974-15.31393166 1.44631587-31.47863771 1.74408661-31.4786377 1.74408662a113.15294087 113.15294087 0 0 0-29.77708966 25.14037204c-11.61306484 14.08030939-32.41448924 22.84328177-32.41448925 22.84328104 6.55096-1.78662519 18.97225992-5.48749202 18.97225991-5.48749202a96.69046408 96.69046408 0 0 1-32.37194993 10.33690398 68.48730601 68.48730601 0 0 0 17.31325045-0.80823509h-0.42538719l-1.5739316 0.51046434c-13.52730647 4.76433409-30.33009259 3.956099-43.5596283 11.91083558 11.95337487-5.44495345 24.71498411-4.25386975 37.8594427-5.91287922a147.31151673 147.31151673 0 0 1-35.34965957 9.1032817 67.80668665 67.80668665 0 0 0 21.86489166-0.63808006 187.59566468 187.59566468 0 0 1-34.03095941 8.0823523 112.72755368 112.72755368 0 0 0 84.22662487-1.91424091 194.10408609 194.10408609 0 0 0 24.88513913-23.90674903 129.95572698 129.95572698 0 0 1-15.18631594 20.2058822 77.76074273 77.76074273 0 0 0 19.44018568-18.24910271c1.74408661-2.29708953 3.78594398-4.67925695 5.95541852-7.01888504a91.8835907 91.8835907 0 0 0-14.25046442 29.05393173c5.23225985-13.99523225 15.39900953-25.09783273 25.52321922-35.98773962l1.14854511-1.31870016a90.39473626 90.39473626 0 0 0 7.91219801-10.63467471l0.80823508-0.68061937c-4.59417979 13.10191928-23.22612966 33.60557294-23.22612966 33.60557294 15.52662526-9.40105244 31.64879272-37.60421052 31.64879272-37.60421052a151.18253785 151.18253785 0 0 1-23.56643969 39.26321999c13.52730647-13.61238362 29.77708967-41.43269306 29.77708966-41.4326938-1.61647089 13.48476789-13.39969002 30.92563479-13.39969075 30.92563479a527.47987374 527.47987374 0 0 0 57.63993842-28.84123813 133.61405523 133.61405523 0 0 1 8.50773949-26.37399357 55.81077392 55.81077392 0 0 0-0.93585153 27.22476723 114.08879241 114.08879241 0 0 1 12.03845201-37.73182623c1.40377731-2.33962883 2.72247673-4.63671836 3.99863831-6.84873075-3.65832826 9.6988232-7.61442726 19.78049499-6.55096001 30.24501544 0.38284862-12.03845203 7.01888576-22.20520099 12.50637778-32.79733715v0.76569652c-0.68061936 3.06278604-1.78662519 6.50842071-2.59486099 9.74136248a96.35015404 96.35015404 0 0 0-3.44563467 20.1633429 95.11653176 95.11653176 0 0 1 5.82780207-19.3551078c1.23362228-3.19040248 2.63739958-6.12557281 3.87102186-9.57120748s1.82916376-6.80619217 2.59486028-10.08167181l0.29777073-1.53139302c0.2126936-1.23362228 0.42538718-2.38216741 0.68061937-3.48817324a93.58513874 93.58513874 0 0 1-4.50910191 27.73523159 34.8817338 34.8817338 0 0 0-1.65900947 5.23226056v0.46792505c-0.89331295 2.7650153-1.5739316 4.25386975-1.57393159 4.25387047l0.51046432-0.42538719a139.18662513 139.18662513 0 0 1-23.48136256 43.09170253c6.9338079 0 17.90879267-7.65696582 17.90879267-7.65696582a306.27863613 306.27863613 0 0 1-27.26730653 18.419257 100.90179525 100.90179525 0 0 0 29.77708967-13.39969075c-10.8899069 8.03981445-22.88582035 15.56916383-22.88582036 15.56916456a99.28532437 99.28532437 0 0 0-11.14513906 32.49956639 86.01325006 86.01325006 0 0 1-14.03777081 31.8614856c4.25386975-4.25386975 11.78321984-12.76160996 11.78321985-12.76160995a85.07739924 85.07739924 0 0 1-19.69541785 22.41789456 60.70272446 60.70272446 0 0 0 12.76160996-8.50773949l-0.25523216 0.34030933-0.97839011 1.10600655c-8.03981445 9.6988232-21.01411728 16.71770896-27.3523837 28.67108311 6.50842071-9.48613032 16.67517039-14.42061943 25.77845138-21.56712092a129.53033978 129.53033978 0 0 1-22.46043315 22.84328177 59.25640859 59.25640859 0 0 0 16.12216746-10.37944256 164.53969003 164.53969003 0 0 1-22.03504667 21.56712093 98.98755361 98.98755361 0 0 0 62.48934963-39.60352931 170.62272354 170.62272354 0 0 0 7.912198-29.26662533 114.85448891 114.85448891 0 0 1-2.25455095 22.07758526 68.44476744 68.44476744 0 0 0 6.3382664-22.54551102c0.25523217-2.50978313 0.72315793-5.23225985 1.31869942-7.99727515a80.52575802 80.52575802 0 0 0 2.42470599 28.3307738c-2.38216741-12.76160996 0-25.86352924 2.7650153-38.54006205l0.25523217-1.48885446a80.48321946 80.48321946 0 0 0 1.14854512-11.57052625l0.29777075-0.89331297c2.46724455 11.95337487-2.25455096 35.77504603-2.25455095 35.77504676 7.44427223-14.08030939 6.76365287-42.53869962 6.76365287-42.53869962a132.89089731 132.89089731 0 0 1 0 40.24160937c3.99863757-16.37739964 3.70086683-44.70817342 3.70086683-44.70817271 4.89195053 10.8899069 3.91356042 29.35170247 3.91356042 29.35170247a464.3949826 464.3949826 0 0 0 30.287554-47.81349805 117.10903987 117.10903987 0 0 1-5.5300306-23.69405615 49.04712033 49.04712033 0 0 0 11.61306485 20.92904085 100.00848229 100.00848229 0 0 1-8.03981444-34.03096012v-6.9338079c1.61647089 8.97566526 3.23294107 18.33417912 8.76297237 25.52321992-5.14718271-9.23089816-4.76433409-19.86557288-5.44495345-30.33009259l0.25523217 0.63808007c0.89331295 2.63739958 1.5739316 5.70018562 2.46724456 8.50774021a84.14154772 84.14154772 0 0 0 6.55096 16.71770896 83.41838978 83.41838978 0 0 1-4.25387047-17.01548043c-0.51046433-2.97770889-0.80823508-5.7852635-1.40377658-8.93312669s-1.70154804-5.91287921-2.63739957-8.72043307l-0.51046434-1.27616086-1.06346799-2.93517031c7.52935011 11.31529409 11.27275552 32.0741792 11.27275552 32.07417919a183.76718212 183.76718212 0 0 0 5.06210555-19.09987637 42.155851 42.155851 0 0 0 3.99863758 6.7636536 46.28210503 46.28210503 0 0 1-0.38284862-6.7636536 32.32941137 32.32941137 0 0 0 7.69950513 12.76160996 31.30848268 31.30848268 0 0 1-3.31801894-17.52594404l2.38216741 6.80619217 1.10600583-7.86965942 3.02024819 14.76092875 1.7866252-14.84600663c0 1.10600583 0.29777074 2.25455096 0.42538718 3.48817395v1.9567795c2.38216741 17.0154797-4.25386975 35.4347367-13.22953572 51.5143656a133.31628449 133.31628449 0 0 0 14.16538726-22.50297245c-10.03913323 51.04643911-7.78458228 79.5899065 20.71634654 99.58309582 29.39424104 20.58873082 77.80328131-27.86284803 77.8032813-27.86284801s-72.57102146 55.81077392-76.82489121-7.31665652z" fill="#d81e06" p-id="17184"></path><path d="M1212.20828532 639.46721277a174.79151613 174.79151613 0 0 1-41.98569671 10.507059c14.59077372-5.70018562 27.26730653-14.16538725 42.7939318-15.22885451-18.29164056-0.80823508-35.34965956 9.48613032-52.1099071 12.16606847l-1.95678021 0.34030932h-0.55300292a81.2063774 81.2063774 0 0 0 18.50433415-8.93312668 114.85448891 114.85448891 0 0 1-39.56099 7.52934939s15.05869949-3.14786392 22.88582035-5.01956626c0 0-26.62922575 2.63739958-46.7925701-5.48749202a134.12451958 134.12451958 0 0 0-45.43133065-9.3159753s-17.0154797 8.84804954-33.81826653 15.99455103c12.50637779-6.67857572 27.82030944-15.95201245 35.90266247-25.26798776a413.98662355 413.98662355 0 0 1-40.11399365 19.09987636s16.37739964-7.52935011 21.26935017-15.56916455c0 0-39.51845215 6.42334356-72.31578928-3.95609899a45.94179571 45.94179571 0 0 0-6.97634647-1.61647017 106.04897796 106.04897796 0 0 1-24.84260055-11.48544912l4.63671764 1.74408662 2.04185809 0.80823581c4.25386975 1.44631587 9.01820455 3.14786392 13.86761578 4.25386975s9.48613032 1.53139301 14.20792583 2.38216668a133.10359089 133.10359089 0 0 1 27.30984511 7.23157936 135.35814185 135.35814185 0 0 0-26.54414859-10.67721403c-4.50910192-1.40377731-9.35851387-2.594861-13.52730649-4.04117614l-1.02092866-0.38284863c16.63263182 1.27616085 33.64811152 0.80823508 48.23888524 9.14582101-11.65560341-8.97566526-26.54414859-11.61306484-40.79461301-14.37808086 3.57325111 0 7.27411793 0.2126936 11.0600619 0.25523217 25.01275558 0.29777074 53.72637727 13.31461287 53.72637727 13.31461289a78.01597491 78.01597491 0 0 0-33.13764645-18.8021049 186.40458097 186.40458097 0 0 1 37.6467491 9.14582027 738.59943954 738.59943954 0 0 0 76.56965903-47.51572729s-29.39424104 1.23362228-46.79256937-6.72111432c0 0 45.13355991 0.89331295 71.2523213-5.23225984 0 0-34.58396305 5.3598763-64.06328124-0.68061937 0 0 45.43133137 1.48885445 68.06191882-10.12421038 0 0-38.02959771 7.1465015-57.0018569 3.02024747l1.40377657-0.46792577a125.31900861 125.31900861 0 0 0 18.46179558-1.65900946l2.42470599-0.3828479c20.2058822-3.87102186 40.87969016-7.82712085 61.3833438-3.82848328a128.29671752 128.29671752 0 0 0-45.04848274-4.25386974c4.25386975-0.85077366 8.76297239-1.5739316 12.76160995-1.95678021a108.81399325 108.81399325 0 0 0 35.98773963-9.74136249 181.76786333 181.76786333 0 0 1-35.17950454 3.27548035 271.86482884 271.86482884 0 0 0 46.79256937-12.12352989 157.64842071 157.64842071 0 0 0 63.80804908-98.85993716 262.20854348 262.20854348 0 0 1-34.71157877 34.79665591 94.94637745 94.94637745 0 0 0 16.76024753-25.52321991 206.09999881 206.09999881 0 0 1-36.71089756 35.43473671c11.52798769-14.42061943 19.52526284-30.5002476 34.75411735-40.75207372-19.14241493 9.91151679-30.54278618 30.5002476-46.06941145 43.09170254l-1.78662518 1.48885445-0.51046434 0.3828479a95.96730614 95.96730614 0 0 0 13.6549222-20.03572718s-17.0154797 21.26934946-35.98773963 31.01071194c0 0 13.52730647-12.08099061 20.4185758-18.5894113 0 0-25.52321992 18.37671843-51.04643912 21.86489094a158.20142362 158.20142362 0 0 0-51.89721351 17.01548044s-12.16606775 19.05733707-25.1403713 36.24297179c8.89058811-14.16538725 19.01479849-32.66972141 21.7798138-46.79256937a487.49349654 487.49349654 0 0 1-29.77708967 43.13424111s12.2936842-17.31325044 12.46383921-28.37331238a237.28086577 237.28086577 0 0 1-46.70749221 28.88377672c-12.42129992 3.5307118-37.6467491 9.65628462-56.40631541 7.95473657l5.87034063-0.85077367 2.59486028-0.38284862c5.53003059-1.06346725 11.27275552-1.95678022 17.0154797-3.57325036s10.80482975-3.91356042 16.2497832-5.74272493a159.05219728 159.05219728 0 0 1 32.79733785-8.50773948 161.64705828 161.64705828 0 0 0-34.03096012 4.25386974c-5.53003059 1.14854513-11.31529409 2.72247673-16.50501537 3.61578968h-1.27616085c18.16402483-8.50774021 35.68996888-18.71702774 55.81077393-18.419257-17.39832833-2.594861-34.54142375 3.27547963-51.04643985 8.50774022 3.82848328-1.95678022 7.74204298-3.99863757 11.74068127-6.16811138 26.37399358-14.25046441 63.80804907-17.27071188 63.80804909-17.2707126a93.58513874 93.58513874 0 0 0-45.60148567-0.42538648s26.58668717-10.37944255 44.75071201-12.33622349a884.80494972 884.80494972 0 0 0 52.66291001-93.8403709s-30.07486041 18.37671843-52.74798716 20.07826647c0 0 47.77095947-25.26798776 71.55009205-46.79256936 0 0-33.09510788 25.52321992-67.46637732 36.54074252 0 0 48.45157883-24.84260056 65.29690423-50.15312687 0 0-35.68996888 29.77708967-57.93770916 36.32804966l1.19108371-1.31869942a150.96984426 150.96984426 0 0 0 18.37671842-12.46383923l2.29708955-1.78662519c18.92972134-15.82439601 38.28482989-31.94656347 62.06396245-39.68860717a153.56470526 153.56470526 0 0 0-49.68520112 21.69473737c4.25386975-3.48817324 8.25250804-6.72111429 12.20860705-9.44359176a130.21095916 130.21095916 0 0 0 31.98910205-31.13832765s-20.80142441 17.27071188-34.92427237 23.86421045a325.16581891 325.16581891 0 0 0 41.85808026-39.85876148 188.78674838 188.78674838 0 0 0 9.5286689-140.71801815 314.31845059 314.31845059 0 0 1-16.12216748 56.57647044 113.45071162 113.45071162 0 0 0 2.67993815-36.49820397 246.38414749 246.38414749 0 0 1-17.86625336 58.44817277c3.70086683-21.82235309 2.67993815-43.30439614 12.76160923-62.87219753-14.29300299 21.52458162-14.25046441 49.68520112-23.22612966 71.93294067l-0.9783901 2.59486027-0.34030933 0.72315794a114.59925675 114.59925675 0 0 0 2.63739886-28.92631529s-5.40241488 31.98910205-19.69541786 53.38606796c0 0 7.1465015-20.54619152 10.59213616-31.351022 0 0-16.20724463 34.0309594-40.624458 52.5352943a189.16959698 189.16959698 0 0 0-44.32532481 48.19634667s-1.65900947 27.01207437-5.23225986 52.53529355c1.06346725-20.03572717 0.89331295-45.26117635-4.46656333-61.85126886a585.11981143 585.11981143 0 0 1-6.08303423 62.48934965s2.80755387-25.31052633-3.44563467-36.96613045c0 0-20.97157871 52.53529357-57.29962837 84.52439634-31.6913313 27.86284803-24.07690404 74.82557243-41.39015449 116.04557189 4.72179551-13.22953573 9.18835885-34.92427238 7.65696582-68.27461242a232.64414742 232.64414742 0 0 1-10.16674895 44.75071201s8.20996875-29.18154817 0.21269359-49.51504609a56.74662546 56.74662546 0 0 1-15.56916382 40.19907078 198.44303299 198.44303299 0 0 0-27.73523231 45.3462535 51.04643911 51.04643911 0 0 0-2.55232242-20.46111436s0 38.28482989-21.26934946 57.93770842a71.03962844 71.03962844 0 0 0 12.42130065-34.58396231c-4.04117616 18.6319506-15.31393166 35.86012389-31.56371558 43.30439613a38.8378328 38.8378328 0 0 0 13.8676165-21.94996881c-6.16811138 16.0370896-22.8007432 22.67312675-37.56167193 26.96953507-26.16129998 1.53139301-51.38674916-1.82916376-64.57374559 11.91083631 5.99795636-8.50774021 15.95201245-14.03777081 25.52321919-18.8446442-10.93244547 4.25386975-22.41789457 8.50774021-30.41516972 18.6319506a94.64860672 94.64860672 0 0 1 3.82848255-18.16402484 83.80123768 83.80123768 0 0 0-10.03913251 43.09170254 114.51417887 114.51417887 0 0 1-7.40173439-23.48136183c1.95678022 24.62990697 12.76160996 48.06873023 25.9911457 69.16792537l1.70154803 2.38216667 0.38284861 0.51046435a106.77213589 106.77213589 0 0 0-22.33281742-17.27071187 127.23325025 127.23325025 0 0 1 39.00798709 51.76959778c8.80551097 23.22612966 15.52662526 47.26049513 14.08031011 69.25300251-4.25386975 63.12742971-83.20569619 7.82712085-83.20569691 7.82712085s56.2786997 48.45157883 85.67294146 27.86284804c28.50092881-19.95065003 30.7129412-48.49411742 20.71634654-99.58309584a133.31628449 133.31628449 0 0 0 14.16538654 22.50297246c-8.84804954-16.07962817-15.61170241-34.41380802-13.22953574-51.51436488v-1.95678021c0-1.19108371 0.25523217-2.33962883 0.4253872-3.48817397l1.82916449 14.84600662 3.02024747-14.76092874 1.10600583 7.86965942 2.38216741-6.80619217a31.26594411 31.26594411 0 0 1-3.31801822 17.52594405 32.24433423 32.24433423 0 0 0 7.69950441-12.76160996 45.13355991 45.13355991 0 0 1-0.38284863 6.7636536 42.53869962 42.53869962 0 0 0 3.99863831-6.7636536 181.64024688 181.64024688 0 0 0 5.06210483 19.09987636s3.7434054-20.75888511 11.27275552-32.0741792l-1.06346727 2.93517032-0.46792576 1.27616085c-0.89331295 2.80755387-1.91424164 5.70018562-2.594861 8.72043309s-0.89331295 5.95541778-1.40377731 8.93312741a83.67362195 83.67362195 0 0 1-4.25386973 17.01547969 84.3542413 84.3542413 0 0 0 6.55095999-16.71770895c0.85077366-2.85009317 1.5739316-5.91287921 2.46724456-8.50774021l0.25523217-0.63808007c-0.68061936 10.46452042-0.29777074 21.26934946-5.48749203 30.33009258 5.57256989-7.35919508 7.1465015-16.71770896 8.76297168-25.52321991v6.93380788a100.13609874 100.13609874 0 0 1-8.03981374 34.03096014 49.04712033 49.04712033 0 0 0 11.61306483-20.92904012 117.10903987 117.10903987 0 0 1-5.53003131 23.69405542 463.92705683 463.92705683 0 0 0 29.98978325 47.77095947s-0.93585153-18.46179558 3.91356043-29.35170246c0 0-0.29777074 28.3307738 3.7434054 44.70817271a132.84835872 132.84835872 0 0 1 0-40.24160939s-0.63808079 28.54346739 6.7636536 42.53869965c0 0-4.72179551-23.86421045-2.25455096-35.77504678l0.29777075 0.89331298a78.05851348 78.05851348 0 0 0 1.14854441 11.57052626l0.25523215 1.48885444c2.55232171 12.76160996 5.14718271 25.52321992 2.76501604 38.54006205a80.82352878 80.82352878 0 0 0 2.42470598-28.33077451 80.56829661 80.56829661 0 0 1 1.31869942 7.99727587 68.57238388 68.57238388 0 0 0 6.33826641 22.54551102 114.4716403 114.4716403 0 0 1-2.25455169-22.07758526 170.62272354 170.62272354 0 0 0 7.91219873 29.26662533 98.98755361 98.98755361 0 0 0 62.48934965 39.60352931 164.49715073 164.49715073 0 0 1-22.03504668-21.56712093 59.21387001 59.21387001 0 0 0 16.12216674 10.37944255 129.19003047 129.19003047 0 0 1-22.46043315-22.84328176c9.14582028 7.1465015 19.27003067 12.08099061 25.77845208 21.56712091-6.33826641-11.95337487-19.31256923-18.97225992-27.35238368-28.67108311l-0.9783901-1.10600655-0.25523217-0.34030932a60.61764659 60.61764659 0 0 0 12.76160996 8.50773949 85.07739924 85.07739924 0 0 1-19.69541786-22.41789458s7.69950441 8.50774021 11.78321986 12.76160997a85.92817291 85.92817291 0 0 1-14.03777154-31.86148561 99.41294079 99.41294079 0 0 0-11.14513906-32.49956711s-12.03845203-7.52935011-22.92835892-15.56916383a101.02941097 101.02941097 0 0 0 29.77708966 13.39969074 306.27863613 306.27863613 0 0 1-27.26730654-18.41925699s10.97498477 7.61442726 17.90879266 7.65696582a139.2291637 139.2291637 0 0 1-23.82167187-43.09170254l0.51046434 0.4253872s-0.63808079-1.70154804-1.57393159-4.25387048v-0.46792575a34.41380802 34.41380802 0 0 0-1.65900947-5.23225985 93.58513874 93.58513874 0 0 1-4.50910192-27.73523231c0.2126936 1.10600583 0.42538718 2.25455096 0.68061937 3.48817396l0.29777074 1.53139302c0.76569651 3.27547963 1.48885445 6.67857572 2.59486027 10.08167181s2.63739958 6.33826641 3.87102186 9.57120748a94.90383889 94.90383889 0 0 1 5.82780206 19.3551078 96.35015404 96.35015404 0 0 0-3.44563466-20.16334362c-0.85077366-3.27547963-1.95678022-6.67857572-2.594861-9.74136177v-0.76569651c5.44495345 10.59213615 12.12352917 20.80142441 12.50637778 32.79733714 1.10600583-10.46452042-2.89263174-20.54619152-6.55095998-30.24501544 1.27616085 2.21201238 2.594861 4.50910192 3.99863829 6.84873075a113.91863738 113.91863738 0 0 1 12.03845202 37.73182625 55.81077392 55.81077392 0 0 0-0.93585153-27.22476725 133.61405523 133.61405523 0 0 1 8.50773949 26.37399359 527.73510592 527.73510592 0 0 0 57.63993841 28.84123812s-11.78321984-17.4408669-13.39969075-30.92563479c0 0 16.37739964 27.82030944 29.77708967 41.43269379a151.18253785 151.18253785 0 0 1-23.60897829-39.26321998s16.12216747 28.24569664 31.64879274 37.60421051c0 0-18.6319506-20.50365294-23.22613039-33.60557293l0.8082358 0.68061936a89.96934978 89.96934978 0 0 0 7.91219801 10.63467472l1.1485444 1.31870015c9.95405536 10.84736833 20.07826647 21.99250738 25.52321992 35.98773963a91.8835907 91.8835907 0 0 0-14.25046441-29.05393174c2.16947381 2.38216741 4.25386975 4.72179551 5.95541779 7.01888504a77.76074273 77.76074273 0 0 0 19.44018569 18.24910271 130.42365275 130.42365275 0 0 1-15.18631521-20.20588291 193.97646965 193.97646965 0 0 0 24.92767771 23.90674975 112.77009225 112.77009225 0 0 0 84.22662485 1.91424091 187.17027747 187.17027747 0 0 1-34.0309594-8.08235231 67.80668665 67.80668665 0 0 0 21.86489166 0.63808007 147.22643886 147.22643886 0 0 1-35.34965956-9.1032817c13.10191928 1.61647089 25.9060678 0.46792576 37.85944268 5.91287921-13.22953573-7.95473658-30.03232183-7.18904006-43.51708972-11.91083556l-1.5739316-0.51046436h-0.42538719a68.57238388 68.57238388 0 0 0 17.31325044 0.80823509 96.64792551 96.64792551 0 0 1-32.37194994-10.33690398s12.46383922 3.70086683 18.97225993 5.48749202c0 0-20.80142441-8.76297239-32.41448924-22.84328176a113.15294087 113.15294087 0 0 0-29.77708967-25.1403713s-16.16470605-0.25523217-31.4786377-1.74408663c11.95337487 0 27.01207437-0.63808079 36.75343685-4.25386973a348.81733576 348.81733576 0 0 1-37.43405549-1.95678022s15.18631594 1.02092869 21.94996881-3.06278605c0 0-31.9040249-11.10260048-51.98229065-31.94656346-0.59554149-0.59554149-1.19108371-1.19108371-1.78662592-1.74408663a95.2441482 95.2441482 0 0 1-15.05869948-20.84396298l2.67993815 3.27547964 1.19108369 1.44631588c2.67993815 2.97770889 5.31733774 6.12557281 8.50773949 9.01820455s6.33826641 5.14718271 9.40105318 7.78458155a112.64247653 112.64247653 0 0 1 17.0154797 17.01548043 114.21640812 114.21640812 0 0 0-15.6542417-19.56780214c-2.72247673-2.93517033-5.7852635-5.87034064-8.20996875-8.50774021l-0.59554222-0.72315721c11.6981427 7.95473658 24.37467479 14.80346732 31.56371559 27.13969008-4.76433409-11.52798769-14.59077372-19.78049499-23.86421045-27.82030944 2.55232171 1.61647089 5.27479842 3.23294107 7.99727515 4.89195053 18.29164056 10.80482975 34.0309594 32.54210497 34.03095942 32.54210496a66.19021648 66.19021648 0 0 0-16.37739894-27.86284802 158.32903934 158.32903934 0 0 1 23.77913332 22.67312675 626.68012096 626.68012096 0 0 0 76.56965902-2.50978313s-22.12012383-11.52798769-31.43609913-24.67244626c0 0 32.79733713 19.78049499 54.57715166 26.28891642a179.08792518 179.08792518 0 0 1-46.79256938-27.60761585s32.75479855 20.33349864 54.2368416 21.26934946c0 0-30.96817337-10.84736833-43.17678041-21.90743024l1.23362228 0.25523217a107.24006166 107.24006166 0 0 0 14.2504644 6.59349857l1.91424164 0.7656965c16.50501536 5.70018562 33.35034077 11.52798769 46.79256937 23.18359183a108.81399325 108.81399325 0 0 0-31.26594411-22.24774029c3.61578968 1.23362228 7.10396292 2.55232171 10.16674968 3.95609902a92.22390073 92.22390073 0 0 0 30.54278619 8.082353 153.94755316 153.94755316 0 0 1-27.22476796-12.50637778 230.09182571 230.09182571 0 0 0 39.47591285 10.84736831 133.65659381 133.65659381 0 0 0 88.86334323-45.55894708 222.22216628 222.22216628 0 0 1-40.1990708 10.88990689 80.31306442 80.31306442 0 0 0 22.54551104-11.82575842z" fill="#d81e06" p-id="17185"></path></svg>