<?xml version="1.0" encoding="utf-8"?>
<!-- Generator: Adobe Illustrator 24.1.2, SVG Export Plug-In . SVG Version: 6.00 Build 0)  -->
<svg version="1.1" id="图层_1" xmlns="http://www.w3.org/2000/svg" xmlns:xlink="http://www.w3.org/1999/xlink" x="0px" y="0px"
	 viewBox="0 0 612 792" style="enable-background:new 0 0 612 792;" xml:space="preserve">
<style type="text/css">
	.st0{fill:#FFFFFF;}
	.st1{fill:#EAB3D0;}
</style>
<g>
	<path class="st0" d="M305.8,792.6c218.9,0,396.8-177.9,396.8-396.8S524.7-1,305.8-1S-91,176.9-91,395.8S86.9,792.6,305.8,792.6"/>
</g>
<g>
	<path class="st1" d="M674.8,474.7c-84-9.1-164.3,37.4-198.1,114.9H135.3c-33.8-77.5-114-124-198.1-114.9
		C-26.7,645.3,124.7,773.3,306,773.3C487.3,773.3,638.7,645.3,674.8,474.7z M256.4,409.6c66.1,54.1,163.5,44.4,217.6-21.7
		c54.1-66.1,44.4-163.5-21.7-217.6S288.7,125.9,234.6,192c-40.1,49-46.3,117.5-15.6,172.9l-29,29l-37.5-37.5
		c-11.5-11.1-29.9-10.8-41,0.7c-10.8,11.2-10.8,29.1,0,40.3L149,435l-25.2,25.1c-11.3,11.3-11.3,29.7,0,41c11.3,11.3,29.7,11.3,41,0
		l0,0l25.2-25.2l37.5,37.5c11.5,11.1,29.9,10.8,41-0.7c10.8-11.2,10.8-29.1,0-40.3L231,434.9L256.4,409.6L256.4,409.6z M354.3,386.6
		c-53.4,0-96.7-43.2-96.7-96.6c0-53.4,43.2-96.7,96.6-96.7c0,0,0.1,0,0.1,0c53.4,0,96.6,43.3,96.6,96.7
		C450.9,343.4,407.7,386.6,354.3,386.6z M306,792.6c-218.8,0-396.3-177.5-396.3-396.3S87.2,0,306,0s396.3,177.5,396.3,396.3
		S524.8,792.6,306,792.6z"/>
</g>
</svg>
