<?xml version="1.0" encoding="utf-8"?>
<!-- Generator: Adobe Illustrator 24.1.2, SVG Export Plug-In . SVG Version: 6.00 Build 0)  -->
<svg version="1.1" id="图层_1_x5F_复制" xmlns="http://www.w3.org/2000/svg" xmlns:xlink="http://www.w3.org/1999/xlink"
	 x="0px" y="0px" viewBox="0 0 500 500" style="enable-background:new 0 0 500 500;" xml:space="preserve">
<style type="text/css">
	.st0{fill:#FF0F53;}
	.st1{fill:#FFFFFF;}
</style>
<g id="XMLID_1_">
	<g>
		<circle class="st0" cx="250" cy="250" r="213.5"/>
	</g>
</g>
<g id="图层_1">
</g>
<g>
	<path class="st1" d="M292.4,129.7c2.2,2.7,13.7,19,21.7,28.2c0.4-5.5,0.7-10.7,3.6-15.4c-0.7,10.3,8,22.7,11.3,26.7
		c5.4,7.2,14.1,7.1,12.8-2c7.3,5.9,7.9,16,0.8,19.8c8,8.7,7.5,9.7,11.7,10.9c2.6,0.7,3.9,0,5.1-0.9c0.7-0.5,0.8-2.1-1-3.3
		c-9.2-5.9-4.4-18.2-4-18.3c0,0.3-1.4,9.9,3.7,13c12,7.1,12.7,12.8,11.4,22.7c-0.5,3.1-4.9,9.1-10.7,11.6c0.8-1.8,1.2-3.8,1.4-5.8
		c-1.6,2.4-7.5,5.4-11.9,5.4c1.8-1.6,3.4-3.4,4.8-5.4c-1-0.3-2,0.3-2.7,1.2c-0.7,1-4.5,4.7-11.4,2.9c2.6-1.2,3-2.3,3.6-3.8
		c0.3-1,0.1-1.3-0.9-1.5c-13.4-2.2-16.2-12.7-29-19.3c-1.4-0.6-2.9-1.2-4.4-1.7c-0.6-0.2-1,0-1.1,0.6c-0.4,2.8-1.7,9.7,5.1,12.4
		c4.3,2.2,15.4,3.7,19.8,15.1c-7.9-5-9.4-4.5-12.8-4.5c5,3.5,7.2,6.1,8.9,9.4c1.8,4,4.3,4.4,7,4.8c5.1,1.3,6.9-3.4,7.1-3.7
		c3,8.9-1,14-6.9,16c-4.1,1.3-8.4,1.9-12.8,1.8c-13.2,0.7-13.6-13.5-28.5-10.9c2-1.8,7.3-6.7,14.6-1.6c-0.9-1.8-1-4.1-8.7-5.9
		c8.5-2.7,13.9,1.3,17.3,2.8c0.1-0.1-0.4-8-22.3-13.2c-5.2-1-32.8-5.9-32.3-25.6c4.4,8.9,16.1,10.9,21.4,4.5
		c0.6-0.8,0.5-1.2-0.4-1.8c-21.3-15-89.9,4.5-71.3,30.7c-2.1-0.2-28,1.5-30.2-27.7c-2.4,21,13.7,30.6,19.1,33.1
		c8.7,6.3,111.1,13.4,139.4,26.7c8.4,3.2,9.8,10.2,9.8,17.3c0.1,58.3-48.3,92.7-90.6,118.1c-0.4,0.2-0.8,0.2-1.2,0
		c-32.2-22.3-92.1-46.8-88.9-124.8c13.3,52.9,82.8,81.8,86.4,82.7c6.4-2.5,33.6-13.6,20.4-34.5c5.4,2.1,9.2,5.8,12.5,10.3
		c3.1-8.1,2.7-15.5-3.9-21.9c12.5,1.8,23.1,6.9,31.7,16.5c-20.2-44.7-97.3-23.4-121.9-41.6c-24.2-18-25.1-42.2-40.8-56.7
		c4.4,0.7,8.7,1.5,12.5,4c-2.4-7.6-7.2-12.9-16.5-20c3.9-2.2,8.6-3,13.2-3c-4.5-3.2-11.1-8.5-14.5-14.4c4.9,2,12.9,0.4,15.3-1.2
		c12.9-11,25.4-21.2,39-28.3c24.5-12.7,50.4-9.9,52.3-14.6c0.2-0.2,0.1-3.9-0.3-5.4c-0.4-2.5-6.3-5.5-11.7-8.2
		c7.1,0.4,25.6,0.4,40.6,14.5c3.5-11.5-10.6-28.1-21.3-29.6C269.8,117.1,285.4,119.9,292.4,129.7L292.4,129.7z M319,179.5
		c2.2,7,4.1,10.7,7.3,12.1c3,1.3,6.5,0.4,8-2.2c0.3-0.6,0.2-0.8-0.5-1.1c-1.4-0.5-2.8-1.2-4.1-2C326.9,184.5,324.1,181,319,179.5z"
		/>
	<path class="st1" d="M166.5,300.5c-1.6-6.3-2.3-17.2-1.8-21.6c2.3-41.1-27.8-41.8-38-52.7c-15.1-16.9-14.5-34.9-11.3-47.5
		c-11.1,15.7-5.7,48.1-2.7,52.5c0.4,0.9,1.2,1.5,2.1,1.6c2.8,1.4,12,7.2,18,16.3c-8.5-0.3-15.2-3.9-20.6-10.1
		c0.4,2.3,7.8,14.7,11,18.6c0.9,1.3,1.4,1.9,4,2.5C146.6,267,166.5,300.5,166.5,300.5L166.5,300.5z"/>
</g>
</svg>
