<?xml version="1.0" encoding="utf-8"?>
<!-- Generator: Adobe Illustrator 24.1.2, SVG Export Plug-In . SVG Version: 6.00 Build 0)  -->
<svg version="1.1" id="图层_1_x5F_复制" xmlns="http://www.w3.org/2000/svg" xmlns:xlink="http://www.w3.org/1999/xlink"
	 x="0px" y="0px" viewBox="0 0 500 500" style="enable-background:new 0 0 500 500;" xml:space="preserve">
<style type="text/css">
	.st0{fill:#FFB5E7;}
</style>
<g id="XMLID_1_">
	<g>
		<circle cx="250" cy="250" r="213.5"/>
	</g>
	<g>
	</g>
</g>
<g id="图层_1">
	<g id="XMLID_2_">
		<g>
			<path class="st0" d="M250.2,435.6c88.6,0,162.6-62.5,180.3-145.9c-41.1-4.5-80.3,18.3-96.8,56.2H166.7
				c-16.5-37.9-55.7-60.6-96.8-56.2C87.5,373,161.5,435.6,250.2,435.6z M250.2,57.6c107,0,193.7,86.7,193.7,193.7
				s-86.7,193.7-193.7,193.7S56.4,358.3,56.4,251.3S143.2,57.6,250.2,57.6z M332.3,247.2c26.4-32.3,21.7-79.9-10.6-106.4
				c-32.3-26.4-79.9-21.7-106.4,10.6c-19.6,24-22.6,57.5-7.6,84.5l-14.2,14.2l-18.3-18.3c-5.6-5.4-14.6-5.3-20,0.4
				c-5.3,5.5-5.3,14.2,0,19.7l18.3,18.3l-12.3,12.3c-5.5,5.5-5.5,14.5,0,20.1c5.5,5.5,14.5,5.5,20.1,0l12.3-12.3l18.3,18.3
				c5.6,5.4,14.6,5.3,20-0.4c5.3-5.5,5.3-14.2,0-19.7l-18.3-18.3l12.4-12.4v0C258.2,284.3,305.8,279.5,332.3,247.2z"/>
			<path class="st0" d="M273.8,152.1c26.1,0,47.2,21.2,47.2,47.3c0,26.1-21.1,47.2-47.2,47.2c-26.1,0-47.3-21.1-47.3-47.2
				C226.5,173.3,247.7,152.1,273.8,152.1C273.8,152.1,273.8,152.1,273.8,152.1z"/>
		</g>
		<g>
		</g>
	</g>
</g>
</svg>
