<?xml version="1.0" encoding="utf-8"?>
<!-- Generator: Adobe Illustrator 24.1.2, SVG Export Plug-In . SVG Version: 6.00 Build 0)  -->
<svg version="1.1" id="图层_1_x5F_复制" xmlns="http://www.w3.org/2000/svg" xmlns:xlink="http://www.w3.org/1999/xlink"
	 x="0px" y="0px" viewBox="0 0 500 500" style="enable-background:new 0 0 500 500;" xml:space="preserve">
<style type="text/css">
	.st0{fill:#00A4FF;}
	.st1{fill:#FFFFFF;}
</style>
<g id="XMLID_1_">
	<g>
		<circle class="st0" cx="250" cy="250" r="213.5"/>
	</g>
</g>
<g id="图层_1">
</g>
<g>
	<path class="st1" d="M238,90.5v55.9c-25.9,20.3-49.6,43.2-70.8,68.2c-6.2-5.3-16.8-14.2-31-26.6c0.6,26.8-5.5,53.3-17.8,77.1
		c27.3,22.9,43.1,56.6,43.4,92.2l93.1,52.3l117.9-102.8l8.9-54l-21.3-23v29.3H348c-16.8-26.6-31-40.8-41.7-44.3
		c-29.3-11.4-91.3,3.5-86.9,63.8c2.6,17.1,18.2,29.2,35.5,27.4l24.8-24.8c-21.3-12.4-27.4-25.7-16-39c17.7-8.9,36.3,2.6,56.7,36.3
		c-15.1,29.8-37.7,55.2-65.6,73.6c-16.8,0-39-18.6-66.5-58.5c-12.4-55.8,17.8-93.1,91.3-112.6c0.9-4.4,3.5-19.5,8-44.3L238,90.5z"/>
</g>
</svg>
