<?xml version="1.0" standalone="no"?><!DOCTYPE svg PUBLIC "-//W3C//DTD SVG 1.1//EN" "http://www.w3.org/Graphics/SVG/1.1/DTD/svg11.dtd"><svg t="1614390762050" class="icon" viewBox="0 0 1024 1024" version="1.1" xmlns="http://www.w3.org/2000/svg" p-id="169302" xmlns:xlink="http://www.w3.org/1999/xlink" width="200" height="200"><defs><style type="text/css"></style></defs><path d="M606.208 316.416h-13.312c-5.12 0-9.216 4.096-9.216 9.216v41.472c0 5.12 4.096 9.216 9.216 9.216h12.8c10.24 0 18.944-3.072 25.088-9.216 6.144-6.144 9.728-13.824 9.728-22.528-0.512-18.432-11.776-28.16-34.304-28.16z" fill="#1296db" p-id="169303"></path><path d="M523.264 43.52C324.608 37.376 162.304 199.68 168.448 398.336c5.632 180.224 152.576 326.656 332.288 332.288 198.656 6.144 360.96-156.16 354.816-354.816-5.632-179.712-152.576-326.144-332.288-332.288zM481.28 491.52h-26.112c-5.12 0-9.216-4.096-9.216-9.216V414.72c0-5.12-4.096-9.216-9.216-9.216H366.08c-5.12 0-9.216 4.096-9.216 9.216v67.584c0 5.12-4.096 9.216-9.216 9.216h-26.112c-5.12 0-9.216-4.096-9.216-9.216V292.352c0-5.12 4.096-9.216 9.216-9.216h26.112c5.12 0 9.216 4.096 9.216 9.216v65.536c0 5.12 4.096 9.216 9.216 9.216h71.68c4.608 0 8.192-3.584 8.192-8.192V291.84c0-5.12 4.096-9.216 9.216-9.216H481.28c5.12 0 9.216 4.096 9.216 9.216v190.464c0 5.12-4.096 9.216-9.216 9.216z m184.32 0c-3.072 0-6.144-1.536-8.192-4.608l-30.208-49.664c-6.656-11.264-12.288-18.432-16.384-21.504-4.096-3.072-8.704-4.608-13.824-4.608H583.68v71.68c0 5.12-4.096 9.216-9.216 9.216h-26.112c-5.12 0-9.216-4.096-9.216-9.216V292.352c0-5.12 4.096-9.216 9.216-9.216h64c49.664 0 74.752 18.944 74.752 56.832 0 14.336-4.096 26.624-12.288 36.352-8.192 10.24-19.968 17.408-34.304 21.504v0.512c9.728 3.072 20.48 13.824 31.744 31.744l30.208 47.616c4.096 6.144-0.512 14.336-7.68 14.336H665.6z" fill="#1296db" p-id="169304"></path><path d="M632.832 956.928c4.608 10.24 18.944 10.752 24.576 1.536l75.264-125.44c2.56-4.096 7.168-6.656 11.776-6.656h154.112c10.752 0 17.408-11.264 12.288-20.992L820.736 648.192c-4.608-8.192-15.872-9.216-22.528-2.56-62.976 69.632-151.04 116.224-249.856 125.44M475.648 771.072c-98.816-9.216-186.88-55.808-249.856-125.44-6.144-7.168-17.92-6.144-22.528 2.56l-89.6 157.184c-5.12 9.216 1.536 20.992 12.288 20.992h154.112c5.12 0 9.216 2.56 11.776 6.656l75.264 125.44c5.632 9.728 19.968 8.704 24.576-1.536" fill="#1296db" p-id="169305"></path></svg>