<?xml version="1.0" standalone="no"?><!DOCTYPE svg PUBLIC "-//W3C//DTD SVG 1.1//EN" "http://www.w3.org/Graphics/SVG/1.1/DTD/svg11.dtd"><svg t="1614390574889" class="icon" viewBox="0 0 1024 1024" version="1.1" xmlns="http://www.w3.org/2000/svg" p-id="166756" xmlns:xlink="http://www.w3.org/1999/xlink" width="200" height="200"><defs><style type="text/css"></style></defs><path d="M707.047619 487.619048c134.656 0 243.809524 109.153524 243.809524 243.809523s-109.153524 243.809524-243.809524 243.809524-243.809524-109.153524-243.809524-243.809524 109.153524-243.809524 243.809524-243.809523z m121.344-414.329905c26.89219 0 48.713143 21.796571 48.713143 48.713143V493.470476a291.05981 291.05981 0 0 0-170.544762-54.857143c-161.426286 0-292.327619 130.852571-292.327619 292.278857 0 87.28381 38.278095 165.64419 98.986667 219.184762H146.236952A48.713143 48.713143 0 0 1 97.52381 901.436952V122.002286c0-26.916571 21.820952-48.713143 48.713142-48.713143h682.154667zM780.190476 731.428571a24.380952 24.380952 0 0 0-24.210286 21.528381L755.809524 755.809524v24.380952h-195.047619a24.380952 24.380952 0 0 0-2.852572 48.591238L560.761905 828.952381h195.047619v24.380952a24.380952 24.380952 0 0 0 48.591238 2.852572L804.571429 853.333333v-24.380952h48.761904a24.380952 24.380952 0 0 0 2.852572-48.591238L853.333333 780.190476h-48.761904v-24.380952a24.380952 24.380952 0 0 0-24.380953-24.380953z m-146.285714-146.285714a24.380952 24.380952 0 0 0-24.210286 21.528381L609.52381 609.52381v24.380952h-48.761905a24.380952 24.380952 0 0 0-2.852572 48.591238L560.761905 682.666667h48.761905v24.380952a24.380952 24.380952 0 0 0 48.591238 2.852571L658.285714 707.047619v-24.380952h195.047619a24.380952 24.380952 0 0 0 2.852572-48.591238L853.333333 633.904762h-195.047619v-24.380952a24.380952 24.380952 0 0 0-24.380952-24.380953zM208.603429 146.383238H168.667429V390.095238h39.936v-107.861333h123.562666V390.095238h39.936V146.383238h-39.936v101.717333H208.603429V146.383238z m319.829333 0h-108.544V390.095238h39.936v-99.328h63.146667c13.653333 0 24.234667 2.730667 31.402666 8.874667 6.826667 5.802667 10.922667 15.36 12.288 28.672l3.072 30.037333c1.365333 13.653333 4.778667 24.234667 10.581334 31.744h43.349333c-8.192-8.874667-13.312-20.821333-14.677333-35.84l-4.096-39.253333c-2.730667-23.893333-14.677333-37.888-35.84-42.666667v-0.682667c12.970667-3.413333 23.552-10.581333 31.061333-21.504 6.826667-9.898667 10.24-21.162667 10.24-33.792 0-23.210667-7.850667-40.96-22.869333-53.248-14.336-11.264-34.133333-16.725333-59.050667-16.725333z m-5.461333 34.133333c16.384 0 28.330667 2.730667 35.84 8.874667 7.509333 5.802667 11.264 15.36 11.264 28.672 0 12.288-3.754667 21.845333-11.264 28.672-8.192 6.485333-20.138667 9.898667-35.84 9.898667h-63.146667V180.516571h63.146667z" p-id="166757" fill="#1296db"></path></svg>