<?xml version="1.0" encoding="utf-8"?>
<!-- Generator: Adobe Illustrator 24.1.2, SVG Export Plug-In . SVG Version: 6.00 Build 0)  -->
<svg version="1.1" id="图层_1" xmlns="http://www.w3.org/2000/svg" xmlns:xlink="http://www.w3.org/1999/xlink" x="0px" y="0px"
	 viewBox="0 0 612 792" style="enable-background:new 0 0 612 792;" xml:space="preserve">
<style type="text/css">
	.st0{clip-path:url(#SVGID_2_);}
	.st1{fill:#FFFFFF;}
	.st2{fill:#EAB3D0;}
</style>
<g>
	<defs>
		<rect id="SVGID_1_" x="-44" y="46" width="699.8" height="700.8"/>
	</defs>
	<clipPath id="SVGID_2_">
		<use xlink:href="#SVGID_1_"  style="overflow:visible;"/>
	</clipPath>
	<g id="XMLID_1_" class="st0">
		<g>
			<path class="st1" d="M453.2,214.6c45.1,54.1,41.7,133.5-7.8,183.6s-129,54.2-183.5,9.6v0l-22.4,22.4l33.1,33.1
				c9.7,10,9.6,26-0.3,35.9s-25.8,10-35.9,0.3l-33.1-33.1l-22.2,22.3c-10,10-26.2,10-36.2,0c-10-10-10-26.2,0-36.2l22.3-22.2
				L134.1,397c-9.7-10-9.6-26,0.3-35.9c9.9-9.9,25.8-10,35.9-0.3l33.1,33.1l25.6-25.6c-34.1-61.6-15.9-139,42.2-178.8
				C329.3,149.7,408.1,160.5,453.2,214.6z M433.7,302.1c0-47.1-38.2-85.3-85.3-85.3c-30.5,0-58.7,16.3-73.9,42.7
				c-15.3,26.4-15.3,58.9,0,85.3c15.2,26.4,43.4,42.7,73.9,42.7C395.5,387.4,433.7,349.2,433.7,302.1z"/>
			<path class="st1" d="M456.5,566.6c29.9-68.4,100.7-109.5,174.9-101.4c-31.9,150.6-165.5,263.6-325.6,263.6
				c-160.1,0-293.7-113-325.6-263.6c74.2-8.1,145,33,174.9,101.4H456.5z"/>
			<path class="st2" d="M305.8,46.1c193.2,0,349.9,156.7,349.9,349.9c0,193.2-156.7,349.9-349.9,349.9
				C112.6,745.8-44.1,589.2-44.1,396C-44.1,202.8,112.6,46.1,305.8,46.1z M631.3,465.2c-74.2-8.1-145,33-174.9,101.4H155
				C125.2,498.3,54.3,457.2-19.9,465.2C12,615.8,145.7,728.8,305.8,728.8C465.8,728.8,599.5,615.8,631.3,465.2z M445.4,398.2
				c49.5-50,52.9-129.5,7.8-183.6c-45.1-54.1-123.9-64.9-182-25.1c-58.1,39.8-76.4,117.3-42.2,178.8l-25.6,25.6l-33.1-33.1
				c-10-9.7-26-9.5-35.9,0.3c-9.9,9.9-10,25.9-0.3,35.9l33.1,33.1l-22.3,22.2c-10,10-10,26.2,0,36.2c10,10,26.2,10,36.2,0l22.2-22.3
				l33.1,33.1c10.1,9.7,26,9.6,35.9-0.3s10-25.9,0.3-35.9l-33.1-33.1l22.4-22.4v0C316.4,452.3,395.9,448.2,445.4,398.2z"/>
			<path class="st2" d="M348.4,216.8c47.1,0,85.3,38.2,85.3,85.3c0,47.1-38.2,85.3-85.3,85.3c-30.5,0-58.7-16.3-73.9-42.7
				c-15.3-26.4-15.3-58.9,0-85.3C289.8,233,317.9,216.8,348.4,216.8z"/>
		</g>
		<g>
		</g>
	</g>
</g>
</svg>
