<?xml version="1.0" encoding="utf-8"?>
<!-- Generator: Adobe Illustrator 24.1.2, SVG Export Plug-In . SVG Version: 6.00 Build 0)  -->
<svg version="1.1" id="图层_1" xmlns="http://www.w3.org/2000/svg" xmlns:xlink="http://www.w3.org/1999/xlink" x="0px" y="0px"
	 width="30px" height="120px" viewBox="0 0 30 120" style="enable-background:new 0 0 30 120;" xml:space="preserve">
<style type="text/css">
	.st0{fill:#FFE261;stroke:#FFFFFF;stroke-width:0.7;stroke-miterlimit:10;}
	.st1{fill:#00A4FF;stroke:#FFFFFF;stroke-width:0.7;stroke-miterlimit:10;}
	.st2{fill:#ED3714;stroke:#FFFFFF;stroke-width:0.7;stroke-miterlimit:10;}
	.st3{fill:#FFFFFF;}
	.st4{fill:#FFFFFF;stroke:#FFFFFF;stroke-width:0.7;stroke-miterlimit:10;}
	.st5{fill:#FBCB04;}
	.st6{fill:#FEE903;}
	.st7{fill:#040304;}
	.st8{fill:#020101;}
	.st9{fill:#FDFDFD;}
	.st10{fill:#FFB5E7;}
</style>
<view  preserveAspectRatio="xMidYMid meet" viewBox="0 0 30 30" zoomAndPan="magnify"></view>
<path class="st0" d="M15,10.5c2.5,0,4.5,2,4.5,4.5s-2,4.5-4.5,4.5s-4.5-2-4.5-4.5S12.5,10.5,15,10.5"/>
<view  preserveAspectRatio="xMidYMid meet" viewBox="0 30 30 30" zoomAndPan="magnify"></view>
<path class="st1" d="M15,40.5c2.5,0,4.5,2,4.5,4.5s-2,4.5-4.5,4.5s-4.5-2-4.5-4.5S12.5,40.5,15,40.5"/>
<view  preserveAspectRatio="xMidYMid meet" viewBox="0 60 30 30" zoomAndPan="magnify"></view>
<path class="st2" d="M15,70.5c2.5,0,4.5,2,4.5,4.5s-2,4.5-4.5,4.5s-4.5-2-4.5-4.5S12.5,70.5,15,70.5"/>
<path class="st3" d="M17.9,74.1H16l-1-2.2l-1,2.2h-1.9l1.4,1.6L13,77.8L17.9,74.1z M14.4,74.7l0.6-1.2l0.5,1.2H16l-1.9,1.5l0.2-0.6
	l-0.6-0.9H14.4z M15.2,76.9l2,0.9l-0.5-2.2L15.2,76.9z"/>
<view  preserveAspectRatio="xMidYMid meet" viewBox="0 90 30 30" zoomAndPan="magnify"></view>
<path class="st4" d="M15,100.5c2.5,0,4.5,2,4.5,4.5s-2,4.5-4.5,4.5s-4.5-2-4.5-4.5S12.5,100.5,15,100.5"/>
<g>
	<path class="st3" d="M13.2,18.1H17c0,0-0.1-1-0.7-1.3c0,0,0.9-1,1-1.4c0,0-1-0.5-1.3-1.1c0,0,1.7,1.1,2.2,1.1c0,0,0.2-1.1-1.5-2.1
		c0,0-0.2-0.1-0.5,0.1c-0.3,0.3-0.6,0.6-0.7,1.3c-0.1,0.8-0.1,1.5-0.1,1.7c0,0-0.5-0.1-0.7,0c0,0,0-0.7-0.2-1.4
		c-0.2-0.9-0.6-2.2-1.6-2.7c0,0-0.6,0.6-0.5,1.7c0.1,1.3,0.5,2.2,1.3,2.8C13.8,16.8,13.2,17.1,13.2,18.1z"/>
</g>
<g>
	<path class="st5" d="M11.5,43.2c0.5-0.3,1-0.5,1.5-0.6c0.2,0.1,0.4,0.1,0.6,0.2c0.7,0.3,1.3,0.9,1.6,1.6c0.1,0.2,0.1,0.4,0.2,0.6
		c-0.1,0.1-0.2,0.1-0.4,0.1l-1,0.2c-0.2,0-0.3,0.1-0.2,0.3c0.2,0.6,0.8,0.9,1.4,0.9c0.1,0,0.2-0.1,0.3,0c0.1,0.5,0,0.9,0,1.4
		c0,0,0,0.1-0.1,0.1H13c-0.3-0.1-0.7-0.1-0.9-0.4c-0.4-0.3-0.6-0.7-0.6-1.2c0.1-0.1,0.2-0.1,0.3-0.2c0.3-0.2,0.5-0.4,0.6-0.7
		c0.1-0.2,0-0.2-0.1-0.3c-0.2,0-0.5-0.1-0.7-0.1c0,0-0.1,0-0.1-0.1v-0.1V43.2C11.4,43.3,11.4,43.3,11.5,43.2L11.5,43.2z"/>
	<path class="st6" d="M15.4,45.1c-0.1,0-0.1,0-0.1-0.1c-0.2-0.7-0.6-1.4-1.3-1.8c-0.3-0.2-0.7-0.4-1.1-0.4c0,0,0.1,0,0.1-0.1
		c0.4-0.1,0.8,0,1.2-0.1c0.8-0.1,1.6-0.2,2.3-0.5c0.1,0,0.1-0.1,0.2,0s0,0.1,0,0.2c-0.1,0.3-0.2,0.7-0.3,1c0,0.1,0,0.2,0,0.2
		c0.7,0.7,1,1.6,1.1,2.5c0.1,0.7,0.1,1.4,0.1,2.1c0,0-0.1,0-0.1,0.1h-1.9v-1.5c0.1-0.1,0.2-0.1,0.3-0.2c0.5-0.2,0.8-0.6,0.9-1.2
		c0-0.2,0-0.3-0.3-0.3s-0.6,0.1-0.9,0.1C15.6,45.1,15.5,45.1,15.4,45.1L15.4,45.1z"/>
	<path class="st7" d="M15.4,45.1c0.4-0.1,0.8-0.1,1.2-0.2c0.2,0,0.2,0,0.2,0.2c-0.1,0.8-0.5,1.3-1.3,1.5c-0.6,0.1-1.1,0-1.5-0.5
		c-0.1-0.2-0.2-0.4-0.3-0.6c0-0.1,0-0.2,0.1-0.2C14.4,45.2,14.9,45.1,15.4,45.1L15.4,45.1z"/>
	<path class="st8" d="M11.5,46.2v-1.1c0.3,0,0.6,0.1,0.9,0.1c0.2,0,0.2,0.1,0.1,0.2c-0.2,0.5-0.5,0.8-1,1
		C11.5,46.4,11.5,46.3,11.5,46.2z"/>
	<path class="st9" d="M15.1,46.4c-0.4,0-0.8-0.2-1-0.7c-0.1-0.1,0-0.1,0.1-0.2c0.4,0,0.7-0.1,1.1-0.2c0.1,0,0.1,0,0.2,0.1
		c0.2,0.2,0.5,0.2,0.7-0.1c0.1-0.2,0.2-0.2,0.3-0.1c0.1,0,0,0.2,0,0.2C16.3,46,15.8,46.4,15.1,46.4z"/>
</g>
<g>
	<path class="st10" d="M18.9,105.8c-0.9-0.1-1.7,0.4-2.1,1.2h-3.6c-0.4-0.8-1.2-1.3-2.1-1.2c0.4,1.8,2,3.1,3.9,3.1
		C16.9,109,18.5,107.6,18.9,105.8z M14.5,105.1c0.7,0.6,1.7,0.5,2.3-0.2c0.6-0.7,0.5-1.7-0.2-2.3c-0.7-0.6-1.7-0.5-2.3,0.2
		c-0.4,0.5-0.5,1.2-0.2,1.8l-0.3,0.3l-0.4-0.4c-0.1-0.1-0.3-0.1-0.4,0c-0.1,0.1-0.1,0.3,0,0.4l0.4,0.4l-0.3,0.3
		c-0.1,0.1-0.1,0.3,0,0.4c0.1,0.1,0.3,0.1,0.4,0l0,0l0.3-0.3l0.4,0.4c0.1,0.1,0.3,0.1,0.4,0c0.1-0.1,0.1-0.3,0-0.4l-0.4-0.4
		L14.5,105.1L14.5,105.1z M15.5,104.9c-0.6,0-1-0.5-1-1c0-0.6,0.5-1,1-1c0,0,0,0,0,0c0.6,0,1,0.5,1,1
		C16.5,104.4,16.1,104.9,15.5,104.9z M15,109.2c-2.3,0-4.2-1.9-4.2-4.2c0-2.3,1.9-4.2,4.2-4.2s4.2,1.9,4.2,4.2
		C19.2,107.3,17.3,109.2,15,109.2z"/>
</g>
</svg>
