<?xml version="1.0" encoding="utf-8"?>
<!-- Generator: Adobe Illustrator 24.1.2, SVG Export Plug-In . SVG Version: 6.00 Build 0)  -->
<svg version="1.1" id="图层_1" xmlns="http://www.w3.org/2000/svg" xmlns:xlink="http://www.w3.org/1999/xlink" x="0px" y="0px"
	 viewBox="0 0 30 120" style="enable-background:new 0 0 30 120;" xml:space="preserve">
<style type="text/css">
	.st0{fill:#FFB502;stroke:#FFFFFF;stroke-width:0.7;stroke-miterlimit:10;}
	.st1{fill:#FFFFFF;}
	.st2{fill:#00A4FF;stroke:#FFFFFF;stroke-width:0.7;stroke-miterlimit:10;}
	.st3{fill:#ED3714;stroke:#FFFFFF;stroke-width:0.7;stroke-miterlimit:10;}
	.st4{fill:#FD5093;stroke:#FFFFFF;stroke-width:0.7;stroke-miterlimit:10;}
	.st5{fill:#FFB5E7;}
</style>
<view  preserveAspectRatio="xMidYMid meet" viewBox="0 0 30 30" zoomAndPan="magnify"></view>
<path class="st0" d="M15,10.5c2.5,0,4.5,2,4.5,4.5s-2,4.5-4.5,4.5s-4.5-2-4.5-4.5S12.5,10.5,15,10.5"/>
<path class="st1" d="M17.4,13.2L17.4,13.2h-0.8L15,16.3l-1.6-3.1h-0.9l0.3,0.6l1.9,3.8h0.6l1.9-3.8l0,0L17.4,13.2z"/>
<view  preserveAspectRatio="xMidYMid meet" viewBox="0 30 30 30" zoomAndPan="magnify"></view>
<path class="st2" d="M15,40.5c2.5,0,4.5,2,4.5,4.5s-2,4.5-4.5,4.5s-4.5-2-4.5-4.5S12.5,40.5,15,40.5"/>
<path class="st1" d="M17.5,43.1L17.5,43.1h-0.9L15,46.3l-1.6-3.2h-0.9l0.3,0.6l1.9,3.9h0.6l1.9-3.9l0,0L17.5,43.1z"/>
<view  preserveAspectRatio="xMidYMid meet" viewBox="0 60 30 30" zoomAndPan="magnify"></view>
<path class="st3" d="M15,70.5c2.5,0,4.5,2,4.5,4.5s-2,4.5-4.5,4.5s-4.5-2-4.5-4.5S12.5,70.5,15,70.5"/>
<path class="st1" d="M17.9,74.1H16l-1-2.2l-1,2.2h-1.9l1.4,1.6L13,77.8L17.9,74.1z M14.4,74.7l0.6-1.2l0.5,1.2H16l-1.9,1.5l0.2-0.6
	l-0.6-0.9H14.4z M15.2,76.9l2,0.9l-0.5-2.2L15.2,76.9z"/>
<view  preserveAspectRatio="xMidYMid meet" viewBox="0 90 30 30" zoomAndPan="magnify"></view>
<path class="st4" d="M15,100.5c2.5,0,4.5,2,4.5,4.5s-2,4.5-4.5,4.5s-4.5-2-4.5-4.5S12.5,100.5,15,100.5"/>
<path class="st1" d="M17.5,104.1v-1.6c-1.5,0.2-2.1,3.7-2.1,3.7h-0.6c0,0-0.7-3.5-2.2-3.7v1.6c0,0,0.7,1.7,1.5,2.1v0.6h-0.6
	l-0.3,0.3v0.3h0.7l0.3-0.3H16l0.3,0.3h0.6v-0.3l-0.3-0.3H16v-0.6C16.8,105.8,17.5,104.1,17.5,104.1z"/>
<g>
	<g id="图层_1_4_">
	</g>
	<g>
		<g id="XMLID_2_">
			<g>
				<circle class="st5" cx="15" cy="105" r="4.2"/>
			</g>
		</g>
		<g id="图层_1_3_">
		</g>
		<g>
			<path class="st1" d="M13.9,105.4c-0.2,0-0.3,0-0.5,0s-0.2,0.1-0.3,0.2c-0.1,0.4-0.2,0.8-0.4,1.3c-0.1,0.2-0.1,0.2-0.3,0.2
				c-0.3-0.1-0.5-0.3-0.4-0.6c0.3-1.1,0.6-2.2,0.9-3.3c0-0.1,0.1-0.1,0.2-0.1c0.4,0,0.6,0.2,0.5,0.6c-0.1,0.3-0.1,0.5-0.2,0.8
				c0,0.1,0,0.2,0.1,0.2c0.4,0,0.8,0,1.2,0c0.1,0,0.2,0,0.2-0.1c0.1-0.3,0.2-0.6,0.3-0.9c0.1-0.4,0.3-0.5,0.7-0.5H17
				c0.1,0,0.1,0,0.2,0c0.6,0.1,0.9,0.5,0.8,1.1c-0.1,0.3-0.1,0.5-0.3,0.8c-0.2,0.2-0.4,0.4-0.6,0.5c-0.1,0-0.2,0.1-0.1,0.2
				c0.2,0.4,0.3,0.8,0.5,1.2c0.1,0.2,0,0.2-0.1,0.3c-0.4,0.1-0.6,0-0.8-0.4c-0.1-0.4-0.3-0.8-0.4-1.1c0-0.1-0.1-0.2-0.3-0.2
				c-0.6,0-0.4-0.1-0.6,0.4c-0.1,0.2-0.1,0.5-0.2,0.7c-0.1,0.3-0.5,0.6-0.8,0.5c-0.1,0-0.1-0.1-0.1-0.2c0.1-0.4,0.2-0.8,0.4-1.2
				c0.1-0.3,0.1-0.3-0.2-0.3C14.2,105.4,14,105.4,13.9,105.4L13.9,105.4z M16.6,104.7c0.1,0,0.2,0,0.3,0c0.2,0,0.3-0.2,0.3-0.5
				c0-0.2-0.1-0.2-0.3-0.2c-0.3,0-0.6,0-0.9,0c-0.1,0-0.2,0-0.2,0.1s-0.1,0.3-0.1,0.4s0,0.2,0.1,0.2
				C16.1,104.6,16.3,104.6,16.6,104.7L16.6,104.7z"/>
		</g>
	</g>
</g>
</svg>
