<?xml version="1.0" encoding="utf-8"?>
<!-- Generator: Adobe Illustrator 24.1.2, SVG Export Plug-In . SVG Version: 6.00 Build 0)  -->
<svg version="1.1" id="图层_1_x5F_复制" xmlns="http://www.w3.org/2000/svg" xmlns:xlink="http://www.w3.org/1999/xlink"
	 x="0px" y="0px" viewBox="0 0 500 500" style="enable-background:new 0 0 500 500;" xml:space="preserve">
<style type="text/css">
	.st0{fill:#FFFFFF;}
	.st1{fill:#4A7DFF;}
</style>
<g id="XMLID_1_">
	<g>
		<circle class="st0" cx="250" cy="250" r="213.5"/>
	</g>
</g>
<g id="图层_1">
</g>
<g>
	<g id="XMLID_3_">
		<g>
			<circle class="st1" cx="250" cy="250" r="186"/>
		</g>
	</g>
	<g id="图层_1_2_">
	</g>
	<g>
		<path class="st0" d="M198.9,269.4c-7.7,0-15.2,0.4-22.9-0.2c-7.3-0.6-10,2.6-11.8,9.2c-5,18.9-10.6,37.7-16,56.6
			c-2.6,8.9-4.4,10-13.2,8.5c-15.2-2.6-21.5-11.8-17.2-26.8c13.8-48.4,27.6-96.5,41.5-144.7c1.2-4.4,3.4-6.3,8.1-6.3
			c16.4-0.2,25.7,10.8,21.9,26.5c-3,11.8-6.5,23.5-10.1,35.1c-1.6,5.1-1,7.5,5.1,7.3c17.2-0.3,34.5-0.2,51.7,0
			c4.7,0,6.9-1.7,8.1-6.1c3.6-13.4,7.3-26.7,11.5-39.9c5-15.8,14.8-22.7,31.4-22.7h53c2.4,0,4.8,0,7.1,0.2
			c28.2,2.4,41.5,20,35.4,47.7c-2.6,12-6.1,23.5-12.8,34c-6.7,10.3-15.8,17.4-27.8,20c-6.4,1.4-6.9,3.9-4.5,9.3
			c7.3,17.9,14.2,36,21.1,54.1c3,7.5,2,9.5-5.3,12.5c-15.6,6.3-28.6,0.6-35.1-15.8c-6.5-16.7-13-33.4-18.9-50.4
			c-2-5.9-4.8-8.5-11.2-8.3c-24.5,0.8-18.2-3.9-25.4,19.2c-3.3,10.8-6.1,21.7-9.5,32.3c-4.8,15.2-20.6,24.8-36.3,23.1
			c-6.1-0.6-4.5-4.2-3.6-7.7c5.3-18.4,10.6-36.7,15.8-55.2c3.6-12.8,4.8-11.8-8.9-11.8C212.8,269.4,205.9,269.4,198.9,269.4
			L198.9,269.4z M320.5,235c4.5-0.6,9.3-1,13.9-2c8.1-1.8,13.6-11.1,12.6-20.7c-0.6-6.7-5.1-9.8-14.8-10c-13-0.2-25.7,0-38.7-0.2
			c-4.5,0-7.1,1.6-8.1,6.3c-1.6,6.3-3.4,12.5-5.3,18.6c-1.6,4.8-0.3,7.1,5.1,7.1C297,233.7,308.6,232.8,320.5,235L320.5,235z"/>
	</g>
</g>
</svg>
