<?xml version="1.0" encoding="utf-8"?>
<!-- Generator: Adobe Illustrator 24.1.2, SVG Export Plug-In . SVG Version: 6.00 Build 0)  -->
<svg version="1.1" id="图层_1_x5F_复制" xmlns="http://www.w3.org/2000/svg" xmlns:xlink="http://www.w3.org/1999/xlink"
	 x="0px" y="0px" viewBox="0 0 500 500" style="enable-background:new 0 0 500 500;" xml:space="preserve">
<style type="text/css">
	.st0{fill:#1FB0FF;}
	.st1{fill:#FFFFFF;}
</style>
<g id="XMLID_1_">
	<g>
		<circle class="st0" cx="250" cy="250" r="213.5"/>
	</g>
</g>
<g id="图层_1">
</g>
<g>
	<path class="st1" d="M226.1,352.1c-0.4-6.7,1.6-14,4.3-21c2.5-6.2,6.6-11.6,11.8-15.7c-2.5,1.4-4.8,3.2-6.8,5.2l0.1-0.2l0.5-0.7
		c4-6.5,7.3-13.5,7.9-21c-0.5,2.4-1.2,4.8-2.2,7.1c0.2-4.5-0.9-9.1-3-13.1c0.6,1.8,1,3.6,1.2,5.5c-2.4-3-5.9-4.4-9.2-5.7
		c2.9,1.5,5.9,3.2,7.7,5.7c-4-4.2-11.6-3.1-19.6-3.6c-4.5-1.3-9.5-3.3-11.4-8.2c0.6,2.6,2.1,5,4.2,6.7c-4.9-2.2-8.4-7.5-9.6-13.1
		c0.3,3.8,1.6,7.4,3.7,10.5c-6.4-6-6.5-17.6-6.5-17.6c-0.7,2-0.9,4.1-0.8,6.2c-2.2-4.9-5-9.6-8.4-13.8c-3.1-3.3-4.8-7.7-4.7-12.2
		c-2.4,6.2,0.1,15,0.1,15c-1.5-4.4-2.5-9-3.1-13.6c-0.5,10.1,0.9,16.7,2.3,20.7c-5.2-12.5-2.9-26.8-12.5-35.2
		c-11-9.7-17.4-25.6-17.4-25.6c-1.9,3.5-1,11.2-1,11.2c-1-6.3-1.6-12.6-1.8-19c-1.6,5-1.7,12.7-1.4,18.8c-1.1-7.7-1.6-15.9-1.6-15.9
		c-3.6-5.6-8.2-10.6-13.5-14.6c-7.4-5.6-12.3-15.9-12.3-15.9c1,3.3,3.2,9.5,3.2,9.5c-4.3-6.5-6-16.2-6-16.2
		c-0.1,2.9,0.2,5.9,0.8,8.8l-0.1-0.2l-0.3-0.8c-2.7-6.8-2.7-15.3-7-21.8c3,5.9,2.7,12.5,3.9,19.1c-2.5-5.7-4.4-11.6-5.4-17.7
		c-0.3,3.7,0,7.5,0.8,11.1c-2.2-5.6-3.8-11.3-4.9-17.2c-4.6,14.1-3.6,29.4,2.9,42.7c3.9,4.4,8.1,8.4,12.7,12.1
		c-4.3-2-10.6-7.2-10.6-7.2c2.7,3.7,6,6.9,9.7,9.4c1.2,0.8,2.5,1.8,3.7,2.9c-4.6-3.1-9.7-5.3-15.1-6.6c7.2,2.3,13.1,7.2,18.8,12
		l0.7,0.5c1.8,1.4,3.6,2.7,5.6,3.8l0.4,0.4c-6.8-2-17.6-11-17.6-11c5.2,7.7,19.8,15.2,19.8,15.2c-10.4-3.3-20.5-11.1-20.5-11.1
		c7.2,6.6,21.7,14.2,21.7,14.2c-6.9-0.5-16-6.1-16-6.1c4.7,9.9,10.1,19.4,15.9,28.6c5.5,0.6,13.6,3.7,13.6,3.7
		c-4.6-1.1-9.3-1.1-13.8,0.1c0,0,11.4,0.9,19.4,5.2c1.2,0.7,2.4,1.3,3.6,1.9c-5-1.6-10.2-3.4-15.5-2.6c6.1-0.1,11.4,3.1,16.9,5.6
		h-0.4c-1.6-0.3-3.3-0.8-5-1.1c-3.4-0.8-6.8-1.2-10.3-1.3c3.4,0.5,6.7,1.4,10,2.6c1.7,0.6,3.2,1.2,4.9,1.7c1.8,0.5,3.5,0.8,5.2,1.1
		l0.8,0.1l1.8,0.3c-5.7,0.5-13.3-1.3-17.1-2.4c-5.1-2.3-9.9-5.3-14.4-8.7c0,3.4,3.8,8.6,3.8,8.6c-3.2-4.2-6.3-8.6-9-13.1
		c0.8,4.3,3.9,10,6.6,14.2c-3.9-5.2-7.6-11-7.6-11c-4.9-2.6-10.2-4.4-15.7-5.2c-7.7-1.1-15.5-6.6-15.5-6.6c2.1,2,6.2,5.6,6.2,5.6
		c-5.8-3-10.9-9.4-10.9-9.4c1.1,2.2,2.5,4.2,4.1,6.1l-0.2-0.1l-0.5-0.5c-4.7-3.9-8.2-10.1-14-13.1c4.6,3.1,7,8,10.5,12.4
		c-4.1-3.1-7.9-6.7-11.1-10.8c1.3,2.8,3,5.5,5.1,7.7c-3.8-3.2-7.4-6.7-10.5-10.6c2.3,12.1,9.3,22.9,19.4,30
		c4.6,1.6,9.4,2.9,14.2,3.7c-3.6,0-7.2-0.3-10.7-1c3.4,1.6,7.1,2.6,10.9,3c1.2,0.1,2.6,0.3,3.9,0.6c-4.6-0.4-9.2,0.1-13.7,1.3
		c6.2-1.2,12.5,0,18.6,1.2l0.7,0.1c1.9,0.3,3.7,0.5,5.6,0.5l0.4,0.1c-5.8,1.3-17.3-0.9-17.3-0.9c6.8,3.5,20.7,3.1,20.7,3.1
		c-8.9,1.8-19.4,0.2-19.4,0.2c7.9,1.9,21.6,1.6,21.6,1.6c-5.2,2.4-14.2,2-14.2,2c7.4,5.3,15.2,10.1,23.2,14.4
		c3.7-1.3,7.5-2.2,11.4-2.8c-3.8,1-7.2,3-10.1,5.7c0,0,8.7-4,16.3-4c1.1,0,2.3,0,3.4-0.1c-4.3,0.8-8.8,1.6-12.4,4.4
		c4.4-2.6,9.6-2.4,14.6-2.8l-0.3,0.1c-1.3,0.4-2.7,0.8-4.1,1.2c-2.8,0.8-5.5,1.9-8.1,3.2c2.7-1,5.5-1.8,8.3-2.2
		c1.4-0.3,2.8-0.4,4.3-0.7c1.5-0.3,2.9-0.9,4.2-1.3l0.6-0.2l1.4-0.5c-2.4,1.5-4.9,2.7-7.5,3.5c-0.7,0.1-1.4,0.3-2.1,0.5
		c-9.9,3.1-21.9,1.2-21.9,1.2c1.5,2.5,6.5,4.7,6.5,4.7c-4.2-1.7-8.2-3.6-12.2-5.8c2.5,2.8,7.1,5.7,10.9,7.7
		c-5.2-2.2-10.3-4.9-10.3-4.9c-4.7,0.1-9.3,1-13.6,2.6c-6.1,2.5-14.2,1.7-14.2,1.7c2.4,0.6,6.9,1.5,6.9,1.5c-4.1,0-8.2-0.8-12-2.3
		c1.7,1.1,3.6,2,5.6,2.7h-0.2l-0.6-0.1c-5.1-0.8-10.3-3.9-15.8-3.7c4.7,0.3,8.6,2.9,13,4.6c-4.4-0.5-8.6-1.6-12.7-3.2
		c2.1,1.6,4.5,2.7,7,3.5c-4.2-0.7-8.3-1.8-12.2-3.3c6.9,7.9,16.5,12.9,27,13.8c4.1-0.7,8.1-1.8,12-3.3c-2.6,1.5-5.4,2.8-8.3,3.8
		c3.2-0.3,6.3-1.1,9.3-2.5c0.9-0.4,2-0.8,3.1-1.2c-3.5,1.7-6.8,4-9.5,6.8c4.1-3.5,9.2-5.3,14.2-7l0.6-0.2c1.5-0.6,2.9-1.2,4.3-2
		l0.4-0.1c-3.7,3.4-13.1,6.6-13.1,6.6c6.5-0.3,16.5-6.5,16.5-6.5c-4.3,3.5-9.1,6.3-14.2,8.4c6.6-2,16.6-8,16.6-8
		c-2.8,4-9.5,7.5-9.5,7.5c7.7,0.7,15.5,1,23.2,0.8c2.2-2.5,4.6-4.8,7.2-6.9c-2.3,2.4-4,5.3-5,8.5c0,0,4.7-6.6,10.3-9.9
		c0.8-0.5,1.7-1,2.4-1.5c-2.8,2.4-5.8,4.9-7.3,8.4c2.2-3.7,6-5.8,9.6-8.2l-0.2,0.2c-0.7,0.9-1.7,1.7-2.5,2.6
		c-1.7,1.8-3.2,3.7-4.5,5.8c1.5-1.9,3.3-3.6,5.2-5.2c0.9-0.8,1.9-1.5,2.9-2.4c1-0.9,1.7-1.8,2.6-2.7l0.4-0.4l0.8-1
		c-1.2,2.3-2.8,4.4-4.6,6.3c-0.2,0.2-0.4,0.3-0.5,0.5c-6.1,6.3-15.8,9.7-15.8,9.7c2.1,1.3,6.7,0.9,6.7,0.9
		c-3.8,0.4-7.6,0.6-11.4,0.6c3,1.1,7.5,1.3,11.2,1.3c-4.6,0.4-9.6,0.5-9.6,0.5c-3.4,2-6.5,4.6-9,7.6c-3.5,4.3-9.8,6.9-9.8,6.9
		c2-0.5,5.8-1.7,5.8-1.7c-3.1,1.6-6.4,2.7-9.8,3.1c1.8,0.1,3.5,0.1,5.3-0.2h-0.1l-0.5,0.2c-4.1,1.4-9.2,1.2-13.2,3.6
		c3.6-1.7,7.5-1.3,11.5-1.8c-3.4,1.4-7.1,2.3-10.7,2.8c2.2,0.3,4.4,0.2,6.6-0.2c-3.4,1.1-6.8,2-10.3,2.5c8.3,3.1,17.4,2.9,25.6-0.6
		c2.7-2.2,5.3-4.6,7.6-7.3c-1.3,2.2-2.9,4.2-4.6,6.1c2.3-1.5,4.3-3.4,5.9-5.5c0.5-0.7,1.1-1.4,1.8-2.1c-2,2.7-3.4,5.6-4.3,8.8
		c1.6-4.2,4.7-7.6,7.7-10.9l0.3-0.4c0.9-1,1.7-2.1,2.4-3.2l0.2-0.2c-1.4,4-7,10.2-7,10.2c4.7-2.9,9.6-11.4,9.6-11.4
		c-1.8,4.3-4.2,8.3-7.2,11.9c4.1-4.1,9-12.6,9-12.6c-0.5,4.1-4.1,9.4-4.1,9.4c6-2.6,11.8-5.5,17.5-8.8c0.6-2.7,1.4-5.4,2.6-8
		c-0.8,2.7-0.9,5.5-0.3,8.3c0.5-4,1.8-7.9,3.7-11.4c0.4-0.7,0.8-1.4,1.2-2.1c-1.1,2.9-2.3,6-2,9.2c0.1-3.7,2.1-6.7,3.8-10v0.2
		c-0.2,0.9-0.5,2-0.8,3c-0.6,2-0.9,4-1,6.1c0.4-2,1-4,1.8-5.9c0.4-1,0.8-1.9,1.2-2.9c0.4-1,0.6-2.1,0.8-3.1l0.1-0.5
		c0.1-0.4,0.1-0.7,0.2-1.1c0,2.9-0.5,5.7-1.4,8.4c-0.2,0.5-0.4,1-0.5,1.6v0.1c-0.3,0.8-0.5,1.3-0.5,1.3l0.2-0.1
		c-1.6,4.7-4,9.2-7.1,13.1c2.1,0,5.4-2.3,5.4-2.3c-2.7,2-5.4,3.9-8.3,5.6c3.2-0.9,6.3-2.2,9-4.1c-3.3,2.4-6.9,4.7-6.9,4.7
		c-1.7,3.1-2.8,6.4-3.4,9.9c-0.7,3.5-2.2,6.8-4.3,9.7c1.3-1.3,3.6-3.9,3.6-3.9c-1.6,2.6-3.6,4.9-6,6.8c1.4-0.7,2.7-1.6,3.9-2.6
		l-0.1,0.1l-0.3,0.3c-2.4,2.9-6.4,5.1-8.3,8.7c2-2.9,5.1-4.4,7.8-6.5c-2,2.6-4.3,4.9-6.8,6.9c1.8-0.8,3.4-1.8,4.9-3.1
		c-2,2.4-4.3,4.6-6.7,6.5c7.6-1.4,14.4-5.7,19-12c1.1-2.9,1.9-5.9,2.4-8.9c0,2.2-0.2,4.5-0.7,6.7c1-2.2,1.7-4.5,1.9-6.8
		c0.1-0.8,0.2-1.6,0.4-2.4c-0.3,2.9,0,5.8,0.7,8.6c-0.7-3.9,0-7.8,0.8-11.7l0.1-0.5c0.2-1.2,0.3-2.3,0.3-3.5l0.1-0.3
		c0.7,3.6-0.7,10.9-0.7,10.9c2.3-4.3,2.1-12.9,2.1-12.9c0.6,4,0.6,8.2,0,12.2c1.2-5,1.1-13.6,1.1-13.6c1.5,3.3,1.2,8.9,1.2,8.9
		c3.4-4.6,6.4-9.5,9.2-14.5c-0.8-2.3-1.4-4.7-1.7-7.2c0.6,2.4,1.8,4.6,3.5,6.4c-1.4-3.3-2.2-6.8-2.4-10.3v-2.1
		c0.5,2.7,1,5.6,2.7,7.7c-1.6-2.8-1.4-6-1.7-9.2l0.1,0.2c0.3,0.8,0.5,1.7,0.7,2.6c0.5,1.8,1.1,3.5,2,5.1c-0.6-1.7-1-3.4-1.3-5.2
		c-0.2-0.9-0.2-1.8-0.4-2.7c-0.2-1-0.5-1.8-0.8-2.6l-0.2-0.4l-0.3-0.9c2.3,3.4,3.4,9.7,3.4,9.7c0.6-1.9,1.1-3.8,1.5-5.8
		c0.3,0.7,0.7,1.4,1.2,2.1c-0.1-0.7-0.1-1.4-0.1-2.1c0.5,1.5,1.3,2.8,2.3,3.9c-0.8-1.6-1.2-3.5-1-5.3l0.7,2.1l0.3-2.4l0.9,4.5
		l0.5-4.5c0,0.3,0.1,0.7,0.1,1.1v0.6c0.7,5.2-1.3,10.8-4,15.6c1.7-2.1,3.1-4.4,4.3-6.8c-3,15.5-2.4,24.2,6.3,30.2
		c8.9,6.2,23.6-8.5,23.6-8.5S227.3,371.2,226.1,352.1L226.1,352.1z"/>
	<path class="st1" d="M405.9,304.8c-4.1,1.6-8.4,2.7-12.7,3.2c4.4-1.7,8.3-4.3,13-4.6c-5.6-0.2-10.7,2.9-15.8,3.7l-0.6,0.1h-0.2
		c2-0.7,3.9-1.6,5.6-2.7c-3.8,1.5-7.9,2.2-12,2.3c0,0,4.6-1,6.9-1.5c0,0-8.1,0.8-14.2-1.7c-4.4-1.7-9.1-2.7-13.8-2.8
		c0,0-5.2,2.7-10.3,4.9c3.8-2,8.4-4.8,10.9-7.7c-4,2.1-8,4.1-12.2,5.8c0,0,5-2.3,6.5-4.7c0,0-12,1.9-21.9-1.2
		c-0.7-0.2-1.4-0.4-2.1-0.5c-2.7-0.8-5.2-2-7.5-3.5l1.4,0.5l0.6,0.2c1.3,0.4,2.7,1,4.2,1.3c1.5,0.3,2.9,0.5,4.3,0.7
		c2.8,0.4,5.6,1.2,8.3,2.2c-2.6-1.4-5.3-2.4-8.1-3.2c-1.4-0.4-2.8-0.8-4.1-1.2l-0.3-0.1c5,0.4,10.2,0.2,14.6,2.8
		c-3.5-2.7-8.1-3.5-12.4-4.4c1.1,0,2.2,0.1,3.4,0.1c7.6,0.1,16.3,4,16.3,4c-2.8-2.7-6.3-4.7-10.1-5.7c3.9,0.5,7.7,1.5,11.4,2.8
		c8-4.3,15.8-9.1,23.2-14.4c0,0-8.9,0.4-14.2-2c0,0,13.7,0.3,21.6-1.6c0,0-10.5,1.6-19.4-0.2c0,0,13.8,0.5,20.7-3.1
		c0,0-11.5,2.2-17.3,0.9l0.4-0.1c1.9,0,3.7-0.2,5.6-0.5l0.7-0.1c6.1-1.2,12.4-2.4,18.6-1.2c-4.4-1.2-9.1-1.7-13.7-1.3
		c1.3-0.3,2.7-0.5,3.9-0.6c3.8-0.3,7.5-1.3,10.9-3c-3.5,0.7-7.1,1-10.7,1c4.8-0.8,9.6-2,14.2-3.7c10.1-7.1,17-17.9,19.4-30
		c-3.2,3.8-6.7,7.4-10.5,10.6c2.1-2.3,3.8-4.9,5.1-7.7c-3.3,4-7,7.6-11.1,10.8c3.5-4.4,5.9-9.3,10.5-12.4c-5.8,3-9.3,9.3-14,13.1
		l-0.5,0.5l-0.2,0.1c1.6-1.8,3-3.9,4.1-6.1c0,0-5.2,6.5-10.9,9.4c0,0,4.1-3.7,6.2-5.6c0,0-7.7,5.6-15.5,6.6
		c-5.5,0.8-10.8,2.5-15.7,5.2c0,0-3.7,5.8-7.6,11c2.7-4.3,5.8-9.9,6.6-14.2c-2.8,4.5-5.8,8.9-9,13.1c0,0,3.7-5.3,3.8-8.6
		c-4.4,3.5-9.1,6.4-14.2,8.8c-3.8,1.1-11.4,2.9-17.1,2.4l1.8-0.3l0.8-0.1c1.7-0.3,3.4-0.6,5.2-1.1s3.3-1.2,4.9-1.7
		c3.2-1.2,6.6-2.1,10-2.6c-3.5,0.1-6.9,0.5-10.3,1.3c-1.7,0.3-3.4,0.8-5,1.1h-0.4c5.5-2.6,10.8-5.7,16.9-5.6
		c-5.3-0.8-10.5,1-15.5,2.6c1.2-0.6,2.3-1.2,3.6-1.9c8-4.3,19.4-5.2,19.4-5.2c-4.5-1.2-9.3-1.2-13.8-0.1c0,0,8.1-3.1,13.6-3.7
		c5.9-9.2,11.2-18.7,16-28.5c0,0-9.1,5.6-16,6.1c0,0,14.5-7.7,21.7-14.2c0,0-10,7.7-20.5,11.1c0,0,14.7-7.5,19.8-15.2
		c0,0-10.8,9-17.6,11l0.4-0.4c1.9-1.1,3.8-2.4,5.6-3.8l0.7-0.5c5.7-4.8,11.6-9.7,18.8-12c-5.4,1.3-10.5,3.5-15.1,6.6
		c1.3-1.1,2.5-2,3.7-2.9c3.8-2.6,7-5.8,9.7-9.4c0,0-6.3,5.2-10.6,7.2c4.6-3.6,8.8-7.7,12.7-12.1c6.4-13.3,7.5-28.6,2.9-42.7
		c-1.1,5.9-2.7,11.6-4.9,17.2c0.9-3.6,1.1-7.4,0.8-11.1c-1.1,6.1-2.9,12.1-5.4,17.7c1.1-6.6,0.8-13.1,3.9-19.1
		c-4.3,6.5-4.3,15.1-7,21.8l-0.3,0.8l-0.1,0.2c0.6-2.9,0.9-5.8,0.8-8.8c0,0-1.6,9.7-6,16.2c0,0,2.2-6.2,3.2-9.5
		c0,0-4.9,10.3-12.3,15.9c-5.3,4.1-9.9,9-13.5,14.6c0,0-0.5,8.2-1.6,15.9c0.3-6.1,0.3-13.7-1.4-18.8c-0.3,6.3-0.9,12.7-1.8,19
		c0,0,0.9-7.7-1-11.2c0,0-6.4,15.9-17.4,25.6c-9.6,8.5-7.3,22.7-12.6,35.2c1.4-4,2.8-10.6,2.3-20.7c-0.6,4.6-1.6,9.2-3.1,13.6
		c0,0,2.5-8.9,0.1-15c0.1,4.5-1.6,8.9-4.7,12.2c-3.4,4.2-6.2,8.8-8.4,13.8c0.2-2.1-0.1-4.2-0.8-6.2c0,0,0,11.6-6.5,17.6
		c2.2-3.1,3.5-6.7,3.8-10.5c-1.2,5.7-4.6,10.9-9.6,13.1c2.1-1.7,3.6-4,4.2-6.7c-1.9,4.9-6.9,6.9-11.4,8.2
		c-7.9,0.5-15.6-0.6-19.6,3.6c1.8-2.6,4.8-4.3,7.7-5.7c-3.3,1.3-6.8,2.6-9.2,5.7c0.2-1.9,0.6-3.7,1.2-5.5c-2.2,4-3.2,8.5-3,13.1
		c-1-2.3-1.8-4.7-2.2-7.1c0.6,7.5,3.9,14.6,7.9,21l0.5,0.7l0.1,0.2c-2-2-4.3-3.8-6.8-5.2c5.2,4.1,9.3,9.5,11.8,15.7
		c2.7,7,4.7,14.3,4.3,21c-1.3,19.2-25.2,2.4-25.2,2.4s17.1,14.7,26,8.5c8.6-6.1,9.3-14.7,6.3-30.2c1.2,2.4,2.6,4.7,4.3,6.8
		c-2.7-4.9-4.7-10.4-4-15.6v-0.6c0-0.4,0.1-0.7,0.1-1.1l0.6,4.5l0.9-4.5l0.3,2.4l0.7-2.1c0.2,1.8-0.2,3.7-1,5.3
		c1.1-1.1,1.9-2.4,2.3-3.9c0,0.7,0,1.4-0.1,2.1c0.5-0.6,0.9-1.3,1.2-2.1c0.4,2,0.9,3.9,1.5,5.8c0,0,1.1-6.3,3.4-9.7l-0.3,0.9
		l-0.1,0.4c-0.3,0.9-0.6,1.7-0.8,2.6s-0.3,1.8-0.4,2.7c-0.2,1.8-0.7,3.5-1.3,5.2c0.8-1.6,1.5-3.3,2-5.1c0.3-0.9,0.5-1.8,0.7-2.6
		l0.1-0.2c-0.2,3.2-0.1,6.5-1.7,9.2c1.7-2.2,2.2-5.1,2.7-7.7v2.1c-0.2,3.6-1,7.1-2.4,10.3c1.7-1.8,2.9-4,3.5-6.4
		c-0.3,2.4-0.9,4.9-1.7,7.2c2.7,5,5.8,9.9,9.1,14.5c0,0-0.3-5.6,1.2-8.9c0,0-0.1,8.6,1.1,13.6c-0.6-4-0.6-8.2,0-12.2
		c0,0-0.2,8.7,2.1,12.9c0,0-1.4-7.2-0.7-10.9l0.1,0.3c0,1.2,0.1,2.4,0.3,3.5l0.1,0.5c0.8,3.9,1.6,7.7,0.8,11.7
		c0.8-2.8,1-5.7,0.7-8.6c0.2,0.8,0.3,1.6,0.4,2.4c0.2,2.4,0.9,4.7,1.9,6.8c-0.4-2.2-0.7-4.4-0.7-6.7c0.5,3,1.3,6,2.4,8.9
		c4.5,6.3,11.3,10.6,19,12c-2.4-2-4.7-4.2-6.7-6.5c1.4,1.3,3.1,2.4,4.9,3.1c-2.6-2-4.8-4.3-6.8-6.9c2.8,2.2,5.8,3.7,7.8,6.5
		c-1.9-3.6-5.9-5.8-8.3-8.7l-0.3-0.3l-0.1-0.1c1.2,1,2.5,1.9,3.9,2.6c-2.4-1.9-4.4-4.2-6-6.8c0,0,2.3,2.6,3.6,3.9
		c-2.1-2.9-3.5-6.2-4.3-9.7c-0.5-3.5-1.7-6.8-3.4-9.9c0,0-3.7-2.3-7-4.7c2.8,1.8,5.8,3.2,9,4.1c-2.9-1.7-5.6-3.6-8.3-5.6
		c0,0,3.3,2.3,5.4,2.3c-3.2-3.9-5.6-8.3-7.2-13.1l0.2,0.1c0,0-0.2-0.5-0.5-1.3v-0.1c-0.1-0.5-0.3-1.1-0.5-1.6
		c-0.9-2.7-1.3-5.6-1.4-8.4c0.1,0.3,0.1,0.7,0.2,1.1l0.1,0.5c0.2,1,0.5,2,0.8,3.1c0.3,1,0.8,1.9,1.2,2.9c0.8,1.9,1.4,3.9,1.8,5.9
		c-0.1-2.1-0.5-4.1-1-6.1c-0.3-1-0.6-2-0.8-3v-0.2c1.7,3.2,3.7,6.3,3.8,10c0.3-3.2-0.9-6.2-2-9.2c0.4,0.7,0.8,1.4,1.2,2.1
		c1.9,3.6,3.1,7.4,3.7,11.4c0.6-2.7,0.5-5.6-0.3-8.3c1.1,2.6,2,5.3,2.6,8c5.6,3.3,11.5,6.2,17.5,8.8c0,0-3.6-5.3-4.1-9.4
		c0,0,5,8.4,9,12.6c-3-3.6-5.4-7.6-7.2-11.9c0,0,4.9,8.6,9.6,11.4c0,0-5.7-6.2-7-10.2l0.2,0.2c0.7,1.1,1.5,2.2,2.4,3.2l0.3,0.4
		c3,3.3,6.1,6.7,7.7,10.9c-0.9-3.2-2.4-6.2-4.3-8.8c0.7,0.7,1.3,1.4,1.8,2.1c1.6,2.2,3.6,4,5.9,5.5c-1.7-1.9-3.3-3.9-4.6-6.1
		c2.3,2.6,4.8,5.1,7.6,7.3c8.1,3.5,17.3,3.7,25.6,0.6c-3.5-0.5-7-1.3-10.3-2.5c2.2,0.4,4.4,0.5,6.6,0.2c-3.7-0.5-7.3-1.4-10.7-2.8
		c4,0.5,7.9,0.1,11.5,1.8c-4-2.4-9.1-2.2-13.2-3.6l-0.5-0.2h-0.1c1.7,0.3,3.5,0.4,5.3,0.2c-3.4-0.5-6.8-1.5-9.8-3.1
		c0,0,3.8,1.1,5.8,1.7c0,0-6.3-2.7-9.8-6.9c-2.5-3-5.6-5.6-9-7.6c0,0-4.9-0.1-9.6-0.5c3.6,0,8.2-0.2,11.2-1.3
		c-3.8,0-7.6-0.2-11.4-0.6c0,0,4.6,0.3,6.7-0.9c0,0-9.7-3.4-15.8-9.7c-0.2-0.2-0.4-0.4-0.5-0.5c-1.8-1.9-3.3-4-4.6-6.3l0.8,1
		l0.4,0.4c0.8,0.9,1.6,1.9,2.6,2.7s1.9,1.6,2.9,2.4c1.9,1.5,3.6,3.3,5.2,5.2c-1.4-2.1-3-4.1-4.8-5.9c-0.8-0.9-1.8-1.8-2.5-2.6
		l-0.2-0.2c3.5,2.4,7.4,4.5,9.6,8.2c-1.4-3.5-4.4-6-7.2-8.4c0.8,0.5,1.6,1,2.4,1.5c5.6,3.3,10.3,9.9,10.3,9.9
		c-0.9-3.2-2.6-6.1-5-8.5c2.6,2,5.1,4.3,7.2,6.9c7.8,0.2,15.5,0,23.2-0.8c0,0-6.7-3.5-9.5-7.5c0,0,10,6,16.6,8
		c-5.1-2.1-9.9-4.9-14.2-8.4c0,0,9.9,6.2,16.5,6.5c0,0-9.4-3.3-13.1-6.6l0.4,0.1c1.4,0.8,2.8,1.4,4.3,2l0.6,0.2
		c5,1.7,10.1,3.5,14.2,7c-2.7-2.8-6-5.1-9.5-6.8c1.1,0.4,2.2,0.8,3.1,1.2c2.9,1.3,6.1,2.2,9.3,2.5c-2.9-1-5.6-2.3-8.3-3.8
		c3.9,1.5,7.9,2.6,12,3.3c10.4-1,20.1-5.9,27-13.8c-4,1.5-8,2.6-12.2,3.3C401.5,307.5,403.8,306.3,405.9,304.8L405.9,304.8z"/>
</g>
</svg>
