<?xml version="1.0" encoding="utf-8"?>
<!-- Generator: Adobe Illustrator 24.1.2, SVG Export Plug-In . SVG Version: 6.00 Build 0)  -->
<svg version="1.1" id="图层_1_x5F_复制" xmlns="http://www.w3.org/2000/svg" xmlns:xlink="http://www.w3.org/1999/xlink"
	 x="0px" y="0px" viewBox="0 0 500 500" style="enable-background:new 0 0 500 500;" xml:space="preserve">
<style type="text/css">
	.st0{fill:#2FBBFF;}
	.st1{fill:#FFFFFF;}
</style>
<g id="XMLID_1_">
	<g>
		<circle class="st0" cx="250" cy="250" r="213.5"/>
	</g>
</g>
<g id="图层_1">
</g>
<g>
	<path class="st1" d="M137.1,240.2c7.7-27.8,23.9-43.3,44.6-53.1c16-7.6,44.2-7.3,45.8,9.2c0.4,20.5-28.3,33.5-51.4,13.4
		c0,0,4.7,49.2,44.2,27.4l0.5-0.5c-6.2,52.4-4.9,97.8-7.4,123.4l48,82.5l40.9-85.5c0,0-10.8-84.7-16.1-122.6l0.5,0.5
		c40.9,19.1,42.2-30.4,42.2-30.4c-21.6,21.6-51.1,10.6-52.2-9.9c0.4-16.5,28.5-18.8,45-12.3c21.4,8.4,38.5,22.7,48.1,49.9
		c0,0,5.2-65.4-49-99.1c0,0-7.1,22.2-24.5,27.6c-8.6,2.6-19.4,2.6-26.3-11.7c-0.7-1.5-1.1-5.6-1.2-7.1c-0.1-3.7,0.1-7.7,1.2-9.9
		c3.8-7.4,19.4-27,19.4-27l-31.8-35.7l-10.5-11.9l-9.6,12.6l-29.3,37.8c0,0,16.9,18.5,21.2,25.6c1.3,2.1,1.8,6.1,1.9,9.8
		c0.1,1.5-0.1,5.6-0.7,7.1c-5.9,14.7-16.7,15.5-25.5,13.4c-17.7-4.1-26.3-25.8-26.3-25.8C127.4,175.3,137.1,240.2,137.1,240.2
		L137.1,240.2z"/>
	<path class="st1" d="M234.8,107l14.8-18.3l16.1,17.2l-14.8,18.3L234.8,107z"/>
</g>
</svg>
