<?xml version="1.0" encoding="utf-8"?>
<!-- Generator: Adobe Illustrator 24.1.2, SVG Export Plug-In . SVG Version: 6.00 Build 0)  -->
<svg version="1.1" id="图层_1_x5F_复制" xmlns="http://www.w3.org/2000/svg" xmlns:xlink="http://www.w3.org/1999/xlink"
	 x="0px" y="0px" viewBox="0 0 500 500" style="enable-background:new 0 0 500 500;" xml:space="preserve">
<style type="text/css">
	.st0{fill:#DF1D19;}
</style>
<g id="XMLID_1_">
	<g>
		<circle cx="250" cy="250" r="213.5"/>
	</g>
</g>
<g id="图层_1">
</g>
<g>
	<path class="st0" d="M247.2,128.7v44.4c-20.6,16.1-39.4,34.3-56.3,54.3c-4.9-4.2-13.4-11.3-24.7-21.2c0.5,21.3-4.3,42.4-14.1,61.3
		c21.7,18.2,34.3,45,34.5,73.3l74,41.6l93.7-81.8l7-43l-16.9-18.3v23.3h-9.8c-13.4-21.1-24.7-32.4-33.1-35.2
		c-23.3-9.1-72.6,2.8-69.1,50.7c2.1,13.6,14.5,23.2,28.2,21.8l19.7-19.7c-16.9-9.9-21.8-20.4-12.7-31c14.1-7.1,28.9,2.1,45.1,28.9
		c-12,23.7-30,43.9-52.1,58.5c-13.4,0-31-14.8-52.9-46.5c-9.9-44.4,14.1-74,72.6-89.5c0.7-3.5,2.8-15.5,6.3-35.2L247.2,128.7z"/>
</g>
</svg>
