<?xml version="1.0" encoding="utf-8"?>
<!-- Generator: Adobe Illustrator 24.1.2, SVG Export Plug-In . SVG Version: 6.00 Build 0)  -->
<svg version="1.1" id="图层_1_x5F_复制" xmlns="http://www.w3.org/2000/svg" xmlns:xlink="http://www.w3.org/1999/xlink"
	 x="0px" y="0px" viewBox="0 0 500 500" style="enable-background:new 0 0 500 500;" xml:space="preserve">
<style type="text/css">
	.st0{fill:#FFFFFF;}
	.st1{fill:#FFE220;}
</style>
<g id="XMLID_1_">
	<g>
		<circle class="st0" cx="250" cy="250" r="213.5"/>
	</g>
</g>
<g id="图层_1">
</g>
<g>
	<g id="XMLID_3_">
		<g>
			<circle class="st1" cx="250" cy="250" r="194.4"/>
		</g>
		<g>
		</g>
	</g>
	<g id="图层_1_2_">
	</g>
	<g>
		<path class="st0" d="M177.7,387.7h160.1c0,0-3.3-41.1-28.1-55.4c0,0,36-39.3,39.3-61.8c0,0-39.3-20.3-53-44.3
			c0,0,72.4,44.3,92.7,44.3c0,0,7.4-44.3-64.1-90c0,0-7.8-6-18.9,4.2c-11.1,10.1-23,24-27.7,55.4c-4.6,31.3-2.7,66.3-4.2,73.7
			c0,0-19.9-3.4-30,0.2c0,0-0.9-26.3-8.7-61.4c-8.2-36.5-25.9-93.6-66.9-114.4c0,0-25,23-20.8,73.9s21.7,92.3,56.3,117.6
			C203.6,329.6,177.7,344.8,177.7,387.7z"/>
	</g>
</g>
</svg>
