<?xml version="1.0" encoding="utf-8"?>
<!-- Generator: Adobe Illustrator 24.1.2, SVG Export Plug-In . SVG Version: 6.00 Build 0)  -->
<svg version="1.1" id="图层_1_x5F_复制" xmlns="http://www.w3.org/2000/svg" xmlns:xlink="http://www.w3.org/1999/xlink"
	 x="0px" y="0px" viewBox="0 0 500 500" style="enable-background:new 0 0 500 500;" xml:space="preserve">
<style type="text/css">
	.st0{fill:#429CFF;}
	.st1{fill:#FFFFFF;}
</style>
<g id="XMLID_1_">
	<g>
		<circle class="st0" cx="250" cy="250" r="213.5"/>
	</g>
</g>
<g id="图层_1">
</g>
<g>
	<path class="st1" d="M416.7,187.4 M345.5,267.3c-7,22.5-20.7,34.7-37.9,42.2c-13.3,5.8-36.3,4.8-37.1-8.8
		c0.3-16.8,24-26.6,42.3-9.6c0,0-2.5-40.3-35.4-23.6L277,268c6.4-42.6,6.6-79.8,9.3-100.6l-37-68.7l-35.7,68.8
		c0,0,6.5,69.5,9.9,100.6l-0.4-0.4c-32.9-16.7-35.3,23.7-35.3,23.7c18.2-17.1,42-7.3,42.3,9.5c-0.8,13.5-23.8,14.6-37.1,8.9
		c-17.2-7.4-30.9-19.6-38-42.1c0,0-6,53.3,37.4,82.2c0,0,6.4-18,20.7-21.9c7.1-1.9,15.9-1.6,21.2,10.2c0.6,1.3,0.8,4.6,0.8,5.8
		c0,3-0.3,6.3-1.3,8.1c-3.3,5.9-16.6,21.5-16.6,21.5l25,30l8.2,10l8.2-10l24.9-30.1c0,0-13.3-15.6-16.7-21.5c-1-1.7-1.3-5-1.3-8.1
		c0-1.2,0.2-4.6,0.8-5.8c5.2-11.8,14.1-12.2,21.2-10.3c14.4,3.9,20.8,21.8,20.8,21.8C351.7,320.6,345.5,267.3,345.5,267.3
		L345.5,267.3z"/>
	<path class="st1" d="M262.1,373.6l-12.6,14.5l-12.7-14.5l12.6-14.5L262.1,373.6z"/>
	<path class="st1" d="M188.5,255.2l-12.6,18.2l-12.7-18.1l12.6-18.2L188.5,255.2z M337.5,255l-12.6,18.2L312.2,255l12.6-18.2
		L337.5,255z"/>
</g>
</svg>
