<?xml version="1.0" encoding="utf-8"?>
<!-- Generator: Adobe Illustrator 24.1.2, SVG Export Plug-In . SVG Version: 6.00 Build 0)  -->
<svg version="1.1" id="图层_1" xmlns="http://www.w3.org/2000/svg" xmlns:xlink="http://www.w3.org/1999/xlink" x="0px" y="0px"
	 viewBox="0 0 612 792" style="enable-background:new 0 0 612 792;" xml:space="preserve">
<style type="text/css">
	.st0{fill:#FFFFFF;}
	.st1{fill:#FFB5E7;}
</style>
<g>
	<g>
		<path class="st0" d="M-104.1,396.1c0,227.1,182.5,409.6,409.6,409.6c227.1,0,409.6-182.5,409.6-409.6
			c0-227.1-182.5-409.6-409.6-409.6c-108.7-0.3-213.1,42.7-290,119.6C-61.4,183-104.5,287.4-104.1,396.1L-104.1,396.1z
			 M-104.1,396.1"/>
	</g>
</g>
<g>
	<g id="XMLID_1_">
		<g>
			<path class="st1" d="M305.5,6c216.4,0,391.9,175.5,391.9,391.9S521.9,789.7,305.5,789.7S-86.4,614.3-86.4,397.9S89.1,6,305.5,6z
				 M670.2,475.4c-83.1-9-162.4,37-195.9,113.6H136.6C103.2,512.4,23.9,466.4-59.2,475.4c35.7,168.6,185.4,295.2,364.7,295.2
				C484.8,770.6,634.5,644.1,670.2,475.4z M471.6,389.6c53.5-65.4,43.9-161.7-21.5-215.2c-65.4-53.5-161.7-43.9-215.2,21.5
				c-39.7,48.5-45.8,116.2-15.4,171l-28.7,28.7l-37.1-37.1c-11.4-11-29.5-10.7-40.5,0.7c-10.7,11.1-10.7,28.7,0,39.8l37.1,37.1
				L125.3,461c-11.2,11.2-11.2,29.4,0,40.6c11.2,11.2,29.4,11.2,40.6,0l24.9-24.9l37.1,37.1c11.4,11,29.5,10.7,40.5-0.7
				c10.7-11.1,10.7-28.7,0-39.8l-37.1-37.1l25.1-25v0C321.8,464.6,418.1,454.9,471.6,389.6z"/>
			<path class="st1" d="M353.3,197.2c52.8,0,95.6,42.8,95.6,95.6c0,52.8-42.8,95.5-95.6,95.5c-52.8,0-95.6-42.7-95.6-95.5
				C257.6,240,300.4,197.2,353.3,197.2C353.2,197.2,353.2,197.2,353.3,197.2z"/>
		</g>
		<g>
		</g>
	</g>
</g>
</svg>
