<?xml version="1.0" standalone="no"?><!DOCTYPE svg PUBLIC "-//W3C//DTD SVG 1.1//EN" "http://www.w3.org/Graphics/SVG/1.1/DTD/svg11.dtd"><svg t="1614385846391" class="icon" viewBox="0 0 1081 1024" version="1.1" xmlns="http://www.w3.org/2000/svg" p-id="5931" xmlns:xlink="http://www.w3.org/1999/xlink" width="211.1328125" height="200"><defs><style type="text/css"></style></defs><path d="M1008.087218 20.994874H61.351688A61.185062 61.185062 0 0 0 0.166626 82.179937v688.365275a61.185062 61.185062 0 0 0 61.185062 61.185062h946.835506a61.185062 61.185062 0 0 0 61.185062-61.185062V82.179937A61.3017 61.3017 0 0 0 1008.087218 20.994874zM532.919893 234.459426h283.264177a24.993898 24.993898 0 1 1 0 49.987796h-283.264177a24.993898 24.993898 0 0 1 0-49.987796z m-24.993898 137.299812a24.993898 24.993898 0 0 1 24.993898-24.993898h206.616223a24.993898 24.993898 0 0 1 24.993898 24.993898 24.993898 24.993898 0 0 1-24.993898 24.993898h-206.616223a24.993898 24.993898 0 0 1-24.993898-24.993898z m-292.845172-128.302009a103.42475 103.42475 0 0 1 18.328859-6.914979c52.970401-10.214173 97.126288 41.656497 77.64771 90.994452-20.111757 50.920901-92.110845 58.152469-121.636971 12.263672-21.811342-33.775087-9.864258-78.880742 25.64374-96.326483z m100.375495 265.085282c-31.74225 2.199463-147.264047 0.949768-161.727183-1.566284-11.48053-2.199463-21.378114-6.765015-23.72754-10.997316s-1.882874-16.346009 0.783142-29.24286c7.231568-34.258303 36.657717-62.551395 71.515873-68.833195 2.199463-0.466553 24.04413-0.633179 48.721439-0.466553 43.85596 0.316589 44.989016 0.316589 55.319827 4.248963a91.527654 91.527654 0 0 1 59.418827 84.079472c-0.016663 15.779481-9.914246 20.26172-50.304385 22.777773z m550.715548 0.51654h-333.251973a24.993898 24.993898 0 0 1 0-49.987796h333.251973a24.993898 24.993898 0 0 1 0 49.987796zM858.707021 949.351558H215.797315c-16.9292 0-30.792482 15.996095-30.792482 35.591311s13.863282 35.591311 30.792482 35.59131h643.043007c16.9292 0 30.792482-15.996095 30.792482-35.59131s-13.863282-35.591311-30.925783-35.591311z" fill="#3975C6" p-id="5932"></path><path d="M831.913563 774.06102m-249.93898 0a249.93898 249.93898 0 1 0 499.87796 0 249.93898 249.93898 0 1 0-499.87796 0Z" fill="#FFFFFF" p-id="5933"></path><path d="M831.180408 556.530795a216.613782 216.613782 0 1 0 216.613783 216.613782 216.613782 216.613782 0 0 0-216.613783-216.613782z m-98.525945 75.398259l35.091432 6.665039c-2.099487 5.398682-4.198975 11.097291-6.898315 16.7959h71.649174v24.893922H795.639086a128.118721 128.118721 0 0 1 12.296997 20.994874l-30.292604 11.097291c-2.699341-8.331299-10.19751-20.994874-17.095826-32.092165h-11.997071a188.120739 188.120739 0 0 1-24.294069 34.491579 298.777056 298.777056 0 0 0-30.892458-15.896119c16.795899-16.262696 31.458986-41.756472 39.290408-66.950321zM941.436824 914.460076h-35.724612v-8.098022h-126.63575v8.098022h-36.224489V756.481979h182.655406v66.883671H779.143113v13.796631H941.436824z m21.661378-144.864632h-36.657717v-25.493776H741.352339v25.493776h-34.491579v-52.187259h111.639411a95.826605 95.826605 0 0 0-7.798096-16.7959l31.792238-6.298462a129.71833 129.71833 0 0 1 11.997071 23.094362h108.573493z m5.998535-89.378179h-41.48987a196.318737 196.318737 0 0 1 13.496705 19.49524l-29.992678 13.496705c-3.33252-8.997803-12.596925-21.894655-21.661378-32.991945h-12.296998a120.120674 120.120674 0 0 1-16.795899 23.327638c-6.665039-4.498902-21.294801-11.663819-29.392824-15.296266 13.796632-13.796632 24.294069-35.39136 29.992677-56.386234l34.491579 6.298463c-1.799561 5.698609-3.899048 11.663819-6.298462 17.395753h79.780522z" fill="#FF7E00" p-id="5934"></path><path d="M779.143113 782.192368h111.57276v15.596193H779.143113zM779.143113 863.172598h126.569099v16.795899H779.143113z" fill="#FF7E00" p-id="5935"></path></svg>