<?xml version="1.0" encoding="utf-8"?>
<!-- Generator: Adobe Illustrator 24.1.2, SVG Export Plug-In . SVG Version: 6.00 Build 0)  -->
<svg version="1.1" id="图层_1_x5F_复制" xmlns="http://www.w3.org/2000/svg" xmlns:xlink="http://www.w3.org/1999/xlink"
	 x="0px" y="0px" viewBox="0 0 500 500" style="enable-background:new 0 0 500 500;" xml:space="preserve">
<style type="text/css">
	.st0{fill:#4A7DFF;}
	.st1{fill:#FFFFFF;}
</style>
<g id="XMLID_1_">
	<g>
		<circle class="st0" cx="250" cy="250" r="213.5"/>
	</g>
</g>
<g id="图层_1">
</g>
<g>
	<path class="st1" d="M151.6,390.4c0,0,178,12.8,192.5,0c14.5-12.8,16.9-43.9-47.3-84.4c-40.6-25.7-25-36.4-65.5-43.2
		c-9.7,0-22.4,5.9-45.9,19.5C121.2,319.5,114.5,376.9,151.6,390.4z M126.3,205.4c0,0-23.6,60.8,3.4,70.9
		C156.7,286.4,136.4,205.4,126.3,205.4z M200.8,147.9c0,0-32.7,56.4-7.6,70.6S210.8,149.5,200.8,147.9z M281.7,154.3
		c0,0-40.5,51.2-17.6,68.8C286.9,240.8,291.4,157.3,281.7,154.3z M334.8,195.2c0,0-41.7,50.1-19.3,68.3
		C337.8,281.7,344.4,198.5,334.8,195.2z M395.1,266.3c0,0-50.3,41.5-31.6,63.6C382.1,351.9,404,271.3,395.1,266.3z"/>
	<path class="st1" d="M122.9,185.1c0,5.6,3,10.1,6.8,10.1c3.7,0,6.8-4.5,6.8-10.1c0-5.6-3-10.1-6.8-10.1
		C125.9,175,122.9,179.5,122.9,185.1z"/>
	<path class="st1" d="M214.1,117.6c0,5.6,3,10.1,6.8,10.1c3.7,0,6.8-4.5,6.8-10.1s-3-10.1-6.8-10.1
		C217.1,107.4,214.1,112,214.1,117.6z"/>
	<path class="st1" d="M285,120.9c0,5.6,3,10.1,6.7,10.1s6.8-4.5,6.8-10.1c0,0,0,0,0,0c0-5.6-3-10.1-6.7-10.1
		C288.1,110.8,285,115.3,285,120.9C285,120.9,285,120.9,285,120.9z"/>
	<path class="st1" d="M356,161.5c0,5.6,3,10.1,6.7,10.1c3.7,0,6.8-4.5,6.8-10.1c0,0,0,0,0,0c0-5.6-3-10.1-6.7-10.1
		C359,151.3,356,155.8,356,161.5C356,161.4,356,161.5,356,161.5z"/>
	<path class="st1" d="M406.6,235.8c0,5.6,3,10.1,6.7,10.1c3.7,0,6.8-4.5,6.8-10.1c0,0,0,0,0,0c0-5.6-3-10.1-6.7-10.1
		C409.6,225.6,406.6,230.1,406.6,235.8C406.6,235.7,406.6,235.8,406.6,235.8z"/>
</g>
</svg>
